<svg width="165" height="42" viewBox="0 0 165 42" fill="none" xmlns="http://www.w3.org/2000/svg">
<path d="M7.584 31.368C6.352 31.368 5.248 31.168 4.272 30.768C3.296 30.368 2.512 29.776 1.92 28.992C1.344 28.208 1.04 27.264 1.008 26.16H5.376C5.44 26.784 5.656 27.264 6.024 27.6C6.392 27.92 6.872 28.08 7.464 28.08C8.072 28.08 8.552 27.944 8.904 27.672C9.256 27.384 9.432 26.992 9.432 26.496C9.432 26.08 9.288 25.736 9 25.464C8.728 25.192 8.384 24.968 7.968 24.792C7.568 24.616 6.992 24.416 6.24 24.192C5.152 23.856 4.264 23.52 3.576 23.184C2.888 22.848 2.296 22.352 1.8 21.696C1.304 21.04 1.056 20.184 1.056 19.128C1.056 17.56 1.624 16.336 2.76 15.456C3.896 14.56 5.376 14.112 7.2 14.112C9.056 14.112 10.552 14.56 11.688 15.456C12.824 16.336 13.432 17.568 13.512 19.152H9.072C9.04 18.608 8.84 18.184 8.472 17.88C8.104 17.56 7.632 17.4 7.056 17.4C6.56 17.4 6.16 17.536 5.856 17.808C5.552 18.064 5.4 18.4399 5.4 18.936C5.4 19.48 5.656 19.904 6.168 20.208C6.68 20.512 7.48 20.84 8.568 21.192C9.656 21.56 10.536 21.912 11.208 22.248C11.896 22.584 12.488 23.072 12.984 23.712C13.48 24.352 13.728 25.176 13.728 26.184C13.728 27.144 13.48 28.016 12.984 28.8C12.504 29.584 11.8 30.208 10.872 30.672C9.944 31.136 8.848 31.368 7.584 31.368ZM28.8536 14.352V17.64H24.3896V31.2H20.2856V17.64H15.8216V14.352H28.8536ZM41.8813 28.224H35.5933L34.5853 31.2H30.2893L36.3853 14.352H41.1373L47.2333 31.2H42.8893L41.8813 28.224ZM40.8253 25.056L38.7373 18.888L36.6733 25.056H40.8253ZM58.1606 31.2L54.6566 24.84H53.6726V31.2H49.5686V14.352H56.4566C57.7846 14.352 58.9126 14.584 59.8406 15.048C60.7846 15.512 61.4886 16.1519 61.9526 16.9679C62.4166 17.768 62.6486 18.664 62.6486 19.656C62.6486 20.776 62.3286 21.776 61.6886 22.656C61.0646 23.536 60.1366 24.16 58.9046 24.528L62.7926 31.2H58.1606ZM53.6726 21.936H56.2166C56.9686 21.936 57.5286 21.752 57.8966 21.384C58.2806 21.016 58.4726 20.496 58.4726 19.824C58.4726 19.184 58.2806 18.68 57.8966 18.312C57.5286 17.944 56.9686 17.76 56.2166 17.76H53.6726V21.936ZM75.9049 22.56C76.8809 22.768 77.6649 23.256 78.2569 24.024C78.8489 24.776 79.1449 25.64 79.1449 26.616C79.1449 28.024 78.6489 29.144 77.6569 29.976C76.6809 30.792 75.3129 31.2 73.5529 31.2H65.7049V14.352H73.2889C75.0009 14.352 76.3369 14.744 77.2969 15.5279C78.2729 16.312 78.7609 17.376 78.7609 18.72C78.7609 19.712 78.4969 20.536 77.9689 21.192C77.4569 21.848 76.7689 22.304 75.9049 22.56ZM69.8089 21.168H72.4969C73.1689 21.168 73.6809 21.024 74.0329 20.736C74.4009 20.432 74.5849 19.992 74.5849 19.416C74.5849 18.84 74.4009 18.4 74.0329 18.096C73.6809 17.792 73.1689 17.64 72.4969 17.64H69.8089V21.168ZM72.8329 27.888C73.5209 27.888 74.0489 27.736 74.4169 27.432C74.8009 27.112 74.9929 26.656 74.9929 26.064C74.9929 25.472 74.7929 25.008 74.3929 24.672C74.0089 24.336 73.4729 24.168 72.7849 24.168H69.8089V27.888H72.8329ZM89.9732 31.368C88.3892 31.368 86.9332 31 85.6052 30.264C84.2932 29.528 83.2452 28.504 82.4612 27.192C81.6932 25.864 81.3092 24.376 81.3092 22.728C81.3092 21.08 81.6932 19.6 82.4612 18.288C83.2452 16.976 84.2932 15.952 85.6052 15.216C86.9332 14.48 88.3892 14.112 89.9732 14.112C91.5572 14.112 93.0052 14.48 94.3172 15.216C95.6452 15.952 96.6852 16.976 97.4372 18.288C98.2052 19.6 98.5892 21.08 98.5892 22.728C98.5892 24.376 98.2052 25.864 97.4372 27.192C96.6692 28.504 95.6292 29.528 94.3172 30.264C93.0052 31 91.5572 31.368 89.9732 31.368ZM89.9732 27.624C91.3172 27.624 92.3892 27.176 93.1892 26.28C94.0052 25.384 94.4132 24.2 94.4132 22.728C94.4132 21.24 94.0052 20.056 93.1892 19.176C92.3892 18.28 91.3172 17.832 89.9732 17.832C88.6132 17.832 87.5252 18.272 86.7092 19.152C85.9092 20.032 85.5092 21.224 85.5092 22.728C85.5092 24.216 85.9092 25.408 86.7092 26.304C87.5252 27.184 88.6132 27.624 89.9732 27.624ZM109.32 31.368C107.736 31.368 106.28 31 104.952 30.264C103.64 29.528 102.592 28.504 101.808 27.192C101.04 25.864 100.656 24.376 100.656 22.728C100.656 21.08 101.04 19.6 101.808 18.288C102.592 16.976 103.64 15.952 104.952 15.216C106.28 14.48 107.736 14.112 109.32 14.112C110.904 14.112 112.352 14.48 113.664 15.216C114.992 15.952 116.032 16.976 116.784 18.288C117.552 19.6 117.936 21.08 117.936 22.728C117.936 24.376 117.552 25.864 116.784 27.192C116.016 28.504 114.976 29.528 113.664 30.264C112.352 31 110.904 31.368 109.32 31.368ZM109.32 27.624C110.664 27.624 111.736 27.176 112.536 26.28C113.352 25.384 113.76 24.2 113.76 22.728C113.76 21.24 113.352 20.056 112.536 19.176C111.736 18.28 110.664 17.832 109.32 17.832C107.96 17.832 106.872 18.272 106.056 19.152C105.256 20.032 104.856 21.224 104.856 22.728C104.856 24.216 105.256 25.408 106.056 26.304C106.872 27.184 107.96 27.624 109.32 27.624ZM130.468 31.2L124.804 23.76V31.2H120.7V14.352H124.804V21.744L130.42 14.352H135.244L128.716 22.608L135.484 31.2H130.468ZM144.01 31.368C142.778 31.368 141.674 31.168 140.698 30.768C139.722 30.368 138.938 29.776 138.346 28.992C137.77 28.208 137.466 27.264 137.434 26.16H141.802C141.866 26.784 142.082 27.264 142.45 27.6C142.818 27.92 143.298 28.08 143.89 28.08C144.498 28.08 144.978 27.944 145.33 27.672C145.682 27.384 145.858 26.992 145.858 26.496C145.858 26.08 145.714 25.736 145.426 25.464C145.154 25.192 144.81 24.968 144.394 24.792C143.994 24.616 143.418 24.416 142.666 24.192C141.578 23.856 140.69 23.52 140.002 23.184C139.314 22.848 138.722 22.352 138.226 21.696C137.73 21.04 137.482 20.184 137.482 19.128C137.482 17.56 138.05 16.336 139.186 15.456C140.322 14.56 141.802 14.112 143.626 14.112C145.482 14.112 146.978 14.56 148.114 15.456C149.25 16.336 149.858 17.568 149.938 19.152H145.498C145.466 18.608 145.266 18.184 144.898 17.88C144.53 17.56 144.058 17.4 143.482 17.4C142.986 17.4 142.586 17.536 142.282 17.808C141.978 18.064 141.826 18.4399 141.826 18.936C141.826 19.48 142.082 19.904 142.594 20.208C143.106 20.512 143.906 20.84 144.994 21.192C146.082 21.56 146.962 21.912 147.634 22.248C148.322 22.584 148.914 23.072 149.41 23.712C149.906 24.352 150.154 25.176 150.154 26.184C150.154 27.144 149.906 28.016 149.41 28.8C148.93 29.584 148.226 30.208 147.298 30.672C146.37 31.136 145.274 31.368 144.01 31.368Z" fill="white"/>
<rect x="156.87" y="6.03931" width="2.4" height="7.67367" rx="1.2" transform="rotate(40 156.87 6.03931)" fill="white"/>
<rect x="149.273" y="0.879883" width="2.4" height="10.8" rx="1.2" transform="rotate(2.51516 149.273 0.879883)" fill="white"/>
<rect x="164.399" y="14.0798" width="2.4" height="10.8" rx="1.2" transform="rotate(89.6834 164.399 14.0798)" fill="white"/>
</svg>
