<svg width="165" height="41" viewBox="0 0 165 41" fill="none" xmlns="http://www.w3.org/2000/svg">
<path d="M7.584 31.168C6.352 31.168 5.248 30.968 4.272 30.568C3.296 30.168 2.512 29.576 1.92 28.792C1.344 28.008 1.04 27.064 1.008 25.96H5.376C5.44 26.584 5.656 27.064 6.024 27.4C6.392 27.72 6.872 27.88 7.464 27.88C8.072 27.88 8.552 27.744 8.904 27.472C9.256 27.184 9.432 26.792 9.432 26.296C9.432 25.88 9.288 25.536 9 25.264C8.728 24.992 8.384 24.768 7.968 24.592C7.568 24.416 6.992 24.216 6.24 23.992C5.152 23.656 4.264 23.32 3.576 22.984C2.888 22.648 2.296 22.152 1.8 21.496C1.304 20.84 1.056 19.984 1.056 18.928C1.056 17.36 1.624 16.136 2.76 15.256C3.896 14.36 5.376 13.912 7.2 13.912C9.056 13.912 10.552 14.36 11.688 15.256C12.824 16.136 13.432 17.368 13.512 18.952H9.072C9.04 18.408 8.84 17.984 8.472 17.68C8.104 17.36 7.632 17.2 7.056 17.2C6.56 17.2 6.16 17.336 5.856 17.608C5.552 17.864 5.4 18.24 5.4 18.736C5.4 19.28 5.656 19.704 6.168 20.008C6.68 20.312 7.48 20.64 8.568 20.992C9.656 21.36 10.536 21.712 11.208 22.048C11.896 22.384 12.488 22.872 12.984 23.512C13.48 24.152 13.728 24.976 13.728 25.984C13.728 26.944 13.48 27.816 12.984 28.6C12.504 29.384 11.8 30.008 10.872 30.472C9.944 30.936 8.848 31.168 7.584 31.168ZM28.8536 14.152V17.44H24.3896V31H20.2856V17.44H15.8216V14.152H28.8536ZM41.8813 28.024H35.5933L34.5853 31H30.2893L36.3853 14.152H41.1373L47.2333 31H42.8893L41.8813 28.024ZM40.8253 24.856L38.7373 18.688L36.6733 24.856H40.8253ZM58.1606 31L54.6566 24.64H53.6726V31H49.5686V14.152H56.4566C57.7846 14.152 58.9126 14.384 59.8406 14.848C60.7846 15.312 61.4886 15.952 61.9526 16.768C62.4166 17.568 62.6486 18.464 62.6486 19.456C62.6486 20.576 62.3286 21.576 61.6886 22.456C61.0646 23.336 60.1366 23.96 58.9046 24.328L62.7926 31H58.1606ZM53.6726 21.736H56.2166C56.9686 21.736 57.5286 21.552 57.8966 21.184C58.2806 20.816 58.4726 20.296 58.4726 19.624C58.4726 18.984 58.2806 18.48 57.8966 18.112C57.5286 17.744 56.9686 17.56 56.2166 17.56H53.6726V21.736ZM75.9049 22.36C76.8809 22.568 77.6649 23.056 78.2569 23.824C78.8489 24.576 79.1449 25.44 79.1449 26.416C79.1449 27.824 78.6489 28.944 77.6569 29.776C76.6809 30.592 75.3129 31 73.5529 31H65.7049V14.152H73.2889C75.0009 14.152 76.3369 14.544 77.2969 15.328C78.2729 16.112 78.7609 17.176 78.7609 18.52C78.7609 19.512 78.4969 20.336 77.9689 20.992C77.4569 21.648 76.7689 22.104 75.9049 22.36ZM69.8089 20.968H72.4969C73.1689 20.968 73.6809 20.824 74.0329 20.536C74.4009 20.232 74.5849 19.792 74.5849 19.216C74.5849 18.64 74.4009 18.2 74.0329 17.896C73.6809 17.592 73.1689 17.44 72.4969 17.44H69.8089V20.968ZM72.8329 27.688C73.5209 27.688 74.0489 27.536 74.4169 27.232C74.8009 26.912 74.9929 26.456 74.9929 25.864C74.9929 25.272 74.7929 24.808 74.3929 24.472C74.0089 24.136 73.4729 23.968 72.7849 23.968H69.8089V27.688H72.8329ZM89.9732 31.168C88.3892 31.168 86.9332 30.8 85.6052 30.064C84.2932 29.328 83.2452 28.304 82.4612 26.992C81.6932 25.664 81.3092 24.176 81.3092 22.528C81.3092 20.88 81.6932 19.4 82.4612 18.088C83.2452 16.776 84.2932 15.752 85.6052 15.016C86.9332 14.28 88.3892 13.912 89.9732 13.912C91.5572 13.912 93.0052 14.28 94.3172 15.016C95.6452 15.752 96.6852 16.776 97.4372 18.088C98.2052 19.4 98.5892 20.88 98.5892 22.528C98.5892 24.176 98.2052 25.664 97.4372 26.992C96.6692 28.304 95.6292 29.328 94.3172 30.064C93.0052 30.8 91.5572 31.168 89.9732 31.168ZM89.9732 27.424C91.3172 27.424 92.3892 26.976 93.1892 26.08C94.0052 25.184 94.4132 24 94.4132 22.528C94.4132 21.04 94.0052 19.856 93.1892 18.976C92.3892 18.08 91.3172 17.632 89.9732 17.632C88.6132 17.632 87.5252 18.072 86.7092 18.952C85.9092 19.832 85.5092 21.024 85.5092 22.528C85.5092 24.016 85.9092 25.208 86.7092 26.104C87.5252 26.984 88.6132 27.424 89.9732 27.424ZM109.32 31.168C107.736 31.168 106.28 30.8 104.952 30.064C103.64 29.328 102.592 28.304 101.808 26.992C101.04 25.664 100.656 24.176 100.656 22.528C100.656 20.88 101.04 19.4 101.808 18.088C102.592 16.776 103.64 15.752 104.952 15.016C106.28 14.28 107.736 13.912 109.32 13.912C110.904 13.912 112.352 14.28 113.664 15.016C114.992 15.752 116.032 16.776 116.784 18.088C117.552 19.4 117.936 20.88 117.936 22.528C117.936 24.176 117.552 25.664 116.784 26.992C116.016 28.304 114.976 29.328 113.664 30.064C112.352 30.8 110.904 31.168 109.32 31.168ZM109.32 27.424C110.664 27.424 111.736 26.976 112.536 26.08C113.352 25.184 113.76 24 113.76 22.528C113.76 21.04 113.352 19.856 112.536 18.976C111.736 18.08 110.664 17.632 109.32 17.632C107.96 17.632 106.872 18.072 106.056 18.952C105.256 19.832 104.856 21.024 104.856 22.528C104.856 24.016 105.256 25.208 106.056 26.104C106.872 26.984 107.96 27.424 109.32 27.424ZM130.468 31L124.804 23.56V31H120.7V14.152H124.804V21.544L130.42 14.152H135.244L128.716 22.408L135.484 31H130.468ZM144.01 31.168C142.778 31.168 141.674 30.968 140.698 30.568C139.722 30.168 138.938 29.576 138.346 28.792C137.77 28.008 137.466 27.064 137.434 25.96H141.802C141.866 26.584 142.082 27.064 142.45 27.4C142.818 27.72 143.298 27.88 143.89 27.88C144.498 27.88 144.978 27.744 145.33 27.472C145.682 27.184 145.858 26.792 145.858 26.296C145.858 25.88 145.714 25.536 145.426 25.264C145.154 24.992 144.81 24.768 144.394 24.592C143.994 24.416 143.418 24.216 142.666 23.992C141.578 23.656 140.69 23.32 140.002 22.984C139.314 22.648 138.722 22.152 138.226 21.496C137.73 20.84 137.482 19.984 137.482 18.928C137.482 17.36 138.05 16.136 139.186 15.256C140.322 14.36 141.802 13.912 143.626 13.912C145.482 13.912 146.978 14.36 148.114 15.256C149.25 16.136 149.858 17.368 149.938 18.952H145.498C145.466 18.408 145.266 17.984 144.898 17.68C144.53 17.36 144.058 17.2 143.482 17.2C142.986 17.2 142.586 17.336 142.282 17.608C141.978 17.864 141.826 18.24 141.826 18.736C141.826 19.28 142.082 19.704 142.594 20.008C143.106 20.312 143.906 20.64 144.994 20.992C146.082 21.36 146.962 21.712 147.634 22.048C148.322 22.384 148.914 22.872 149.41 23.512C149.906 24.152 150.154 24.976 150.154 25.984C150.154 26.944 149.906 27.816 149.41 28.6C148.93 29.384 148.226 30.008 147.298 30.472C146.37 30.936 145.274 31.168 144.01 31.168Z" fill="#54AFE3"/>
<rect x="156.87" y="5.83966" width="2.4" height="7.67367" rx="1.2" transform="rotate(40 156.87 5.83966)" fill="#54AFE3"/>
<rect x="149.274" y="0.680481" width="2.4" height="10.8" rx="1.2" transform="rotate(2.51516 149.274 0.680481)" fill="#54AFE3"/>
<rect x="164.4" y="13.8805" width="2.4" height="10.8" rx="1.2" transform="rotate(89.6834 164.4 13.8805)" fill="#54AFE3"/>
</svg>
