<svg width="336" height="310" viewBox="0 0 336 310" fill="none" xmlns="http://www.w3.org/2000/svg">
<g clip-path="url(#clip0_652_15)">
<path d="M306.112 248.359L278.837 207.911C278.837 207.911 320.143 222.308 315.455 248.359H306.112Z" fill="#E5E5E5"/>
<path d="M23.3813 248.627L22.3459 248.607C22.7463 237.113 23.9747 225.663 26.0215 214.345C30.4989 190.114 37.9442 174.2 48.1504 167.045L48.745 167.891C24.9031 184.604 23.3934 247.989 23.3813 248.627Z" fill="#E5E5E5"/>
<path d="M36.3243 248.38L35.2889 248.36C35.3111 247.215 35.9583 220.235 46.5973 212.777L47.1919 213.623C36.9821 220.78 36.3294 248.105 36.3243 248.38Z" fill="#E5E5E5"/>
<path d="M54.6356 167.985C57.4949 167.985 59.8128 165.671 59.8128 162.816C59.8128 159.962 57.4949 157.647 54.6356 157.647C51.7763 157.647 49.4584 159.962 49.4584 162.816C49.4584 165.671 51.7763 167.985 54.6356 167.985Z" fill="#54AFE3"/>
<path d="M52.0718 212.436C54.9311 212.436 57.249 210.122 57.249 207.267C57.249 204.413 54.9311 202.099 52.0718 202.099C49.2125 202.099 46.8946 204.413 46.8946 207.267C46.8946 210.122 49.2125 212.436 52.0718 212.436Z" fill="#54AFE3"/>
<path d="M33.9111 171.083C34.8841 177.288 32.3482 182.837 32.3482 182.837C32.3482 182.837 28.2347 178.327 27.2617 172.123C26.2888 165.918 28.8247 160.369 28.8247 160.369C28.8247 160.369 32.9381 164.879 33.9111 171.083Z" fill="#E5E5E5"/>
<path d="M50.8339 186.152C44.8837 188.19 38.9684 186.664 38.9684 186.664C38.9684 186.664 42.7001 181.834 48.6502 179.796C54.6003 177.759 60.5157 179.285 60.5157 179.285C60.5157 179.285 56.784 184.115 50.8339 186.152Z" fill="#E5E5E5"/>
<path d="M51.025 225.518C48.332 226.362 45.4642 226.486 42.7083 225.877C44.4581 223.652 46.8148 221.981 49.4945 221.063C52.1741 220.145 55.0623 220.021 57.8112 220.705C56.0103 222.875 53.6702 224.534 51.025 225.518Z" fill="#E5E5E5"/>
<path d="M335.482 249.393H0.517597C0.38029 249.393 0.248613 249.338 0.151522 249.241C0.0544307 249.145 -0.00012207 249.013 -0.00012207 248.876C-0.00012207 248.739 0.0544307 248.607 0.151522 248.51C0.248613 248.414 0.38029 248.359 0.517597 248.359H335.482C335.619 248.359 335.751 248.414 335.848 248.51C335.945 248.607 336 248.739 336 248.876C336 249.013 335.945 249.145 335.848 249.241C335.751 249.338 335.619 249.393 335.482 249.393Z" fill="#CBCBCB"/>
<path d="M212.157 273.221L207.922 284.227L163.385 273.154L169.636 256.91L212.157 273.221Z" fill="#FFB7B7"/>
<path d="M223.923 274.512L210.266 310L209.817 309.828C206.147 308.42 203.189 305.615 201.591 302.029C199.993 298.444 199.887 294.372 201.297 290.708L201.297 290.707L209.638 269.033L223.923 274.512Z" fill="#2F2E41"/>
<path d="M144.482 135.417L125.074 137.231L124.111 194.885C124.368 197.71 125.724 200.323 127.887 202.163C130.05 204.003 132.849 204.924 135.684 204.729L147.989 203.883L144.482 135.417Z" fill="#E5E5E5"/>
<path d="M212.905 132.579L199.626 132.409L198.839 200.913C201.773 201.011 204.697 200.504 207.426 199.424C210.156 198.343 212.633 196.713 214.704 194.635C216.775 192.557 218.394 190.075 219.462 187.344C220.529 184.613 221.021 181.692 220.908 178.763L212.905 132.579Z" fill="#E5E5E5"/>
<path d="M135.85 225.249C135.535 227.236 135.079 229.198 134.484 231.12C133.814 233.002 132.779 234.741 132.166 236.642C130.213 242.7 132.921 249.455 137.245 254.132C140.995 258.171 145.836 261.041 151.183 262.395C155.084 263.374 159.14 263.515 163.16 263.651C174.293 264.028 185.712 264.365 196.26 260.793C199.593 259.637 202.812 258.177 205.877 256.432C206.844 255.972 207.697 255.301 208.372 254.47C209.176 253.327 209.279 251.844 209.272 250.446C209.249 245.735 208.292 241.047 208.519 236.341C208.645 233.734 209.134 231.129 208.893 228.531C208.56 225.579 207.322 222.803 205.347 220.581C203.373 218.359 200.759 216.801 197.864 216.119C194.871 215.478 191.767 215.828 188.721 216.12C180.813 216.879 172.871 217.233 164.927 217.182C156.81 217.13 148.743 215.893 140.666 215.764C138.277 215.726 138.326 216.461 137.565 218.769C136.865 220.893 136.292 223.057 135.85 225.249Z" fill="#2F2E41"/>
<path d="M104.109 221.42C101.926 220.872 99.6774 220.634 97.4281 220.711C95.0648 220.841 92.7565 221.473 90.6564 222.563C88.5564 223.653 86.7129 225.177 85.2485 227.033C83.7841 228.89 82.7323 231.036 82.1631 233.33C81.5939 235.623 81.5203 238.012 81.9472 240.336C82.4923 242.854 83.3831 245.284 84.5946 247.558C86.3664 251.148 88.4915 254.73 91.7716 257.03C93.6903 258.376 95.9111 259.215 98.1054 260.04L115.381 266.538C117.922 267.493 120.464 268.449 123.031 269.336C135.925 273.785 149.368 276.454 162.987 277.266C167.135 277.513 171.346 277.581 175.393 276.639C176.353 276.415 177.378 276.081 177.934 275.268C178.263 274.695 178.457 274.055 178.501 273.396L179.564 265.966C179.714 264.92 179.858 263.819 179.474 262.834C178.987 261.586 177.766 260.8 176.603 260.133C165.245 253.62 151.984 250.027 142.424 241.089C140.174 238.985 138.29 235.649 135.556 234.22C132.455 232.599 128.803 231.674 125.598 230.18C118.592 226.915 111.703 223.163 104.109 221.42Z" fill="#2F2E41"/>
<path opacity="0.1" d="M121.356 231.437C127.463 233.347 153.243 246.581 157.662 251.202C157.07 251.415 136.973 240.171 136.37 239.99C130.889 238.348 125.377 236.695 120.172 234.291C119.124 233.807 113.368 231.535 113.629 230.216C113.923 228.727 120.272 231.097 121.356 231.437Z" fill="black"/>
<path d="M158.208 116.039L141.767 128.502C141.767 128.502 124.419 129.044 125.006 140.115C125.592 151.187 132.535 203.607 132.535 203.607L134.041 221.643L162.616 229.772C178.055 234.164 194.367 234.513 209.98 230.785L206.584 212.691C206.584 212.691 220.334 130.512 212.051 126.894C203.767 123.276 198.59 124.309 198.59 124.309L188.207 115.264L158.208 116.039Z" fill="#E5E5E5"/>
<path d="M206.874 95.9087C206.874 112.087 191.889 109.64 173.405 109.64C154.921 109.64 139.937 112.087 139.937 95.9087C139.937 79.73 147.256 51.052 173.405 51.052C200.455 51.052 206.874 79.73 206.874 95.9087Z" fill="#2F2E41"/>
<path d="M190.803 101.392C199.598 92.611 199.598 78.3748 190.803 69.5942C182.008 60.8135 167.748 60.8135 158.953 69.5942C150.158 78.3748 150.158 92.611 158.953 101.392C167.748 110.172 182.008 110.172 190.803 101.392Z" fill="#FFB7B7"/>
<path d="M147.273 84.9235H156.18L160.11 73.9381L160.895 84.9235H165.153L167.445 78.5153L167.904 84.9235H199.538C199.538 78.6109 197.026 72.5569 192.555 68.0933C188.085 63.6296 182.021 61.1219 175.698 61.1219H171.113C164.79 61.1219 158.726 63.6296 154.255 68.0933C149.784 72.5569 147.273 78.6109 147.273 84.9235Z" fill="#2F2E41"/>
<path d="M196.002 118.623H150.96V172.895H196.002V118.623Z" fill="#54AFE3"/>
<path d="M153.442 272.704L157.678 283.71L202.214 272.637L195.963 256.393L153.442 272.704Z" fill="#FFB7B7"/>
<path d="M155.961 268.516L164.303 290.19L164.303 290.191C165.712 293.855 165.607 297.927 164.009 301.513C162.411 305.098 159.452 307.903 155.783 309.311L155.333 309.483L141.676 273.995L155.961 268.516Z" fill="#2F2E41"/>
<path d="M242.466 217.207C246.044 216.312 249.753 216.059 253.419 216.46C256.348 216.782 259.365 217.596 261.503 219.619C264.105 222.082 264.941 225.891 265.011 229.47C265.125 236.599 262.757 243.546 258.31 249.125C257.225 250.536 255.933 251.777 254.48 252.807C252.911 253.786 251.24 254.59 249.496 255.205L210.808 270.44C200.63 274.447 190.416 278.467 179.8 281.109C179.222 281.387 178.558 281.425 177.953 281.215C177.348 281.004 176.851 280.562 176.573 279.985C176.564 279.968 176.556 279.95 176.548 279.932C173.158 275.098 170.314 269.905 168.068 264.447C167.962 264.317 167.889 264.164 167.854 263.999C167.82 263.835 167.826 263.665 167.871 263.504C167.916 263.343 168 263.195 168.115 263.072C168.229 262.95 168.372 262.857 168.53 262.801L195.895 247.104C197.855 245.98 199.837 244.839 201.464 243.273C202.647 242.129 203.615 240.783 204.324 239.299C204.891 238.116 204.944 235.324 205.669 234.45C206.378 233.594 208.805 233.526 209.925 233.189C211.506 232.706 213.054 232.122 214.56 231.44C220.681 228.706 226.132 224.734 232 221.533C235.291 219.654 238.808 218.201 242.466 217.207Z" fill="#2F2E41"/>
<path opacity="0.1" d="M226.953 228.93C222.251 232.455 216.164 235.696 211.505 239.314C209.914 240.548 183.405 255.428 183.03 257.404C187.377 258.136 215.068 238.795 219.03 236.865C222.992 234.936 226.504 232.214 229.984 229.513C230.871 228.824 234.63 226.755 232.084 225.985C230.649 225.552 228.012 228.225 226.953 228.93Z" fill="black"/>
<path d="M311.453 92.8902C320.388 92.8902 327.631 85.6591 327.631 76.739C327.631 67.8189 320.388 60.5878 311.453 60.5878C302.518 60.5878 295.275 67.8189 295.275 76.739C295.275 85.6591 302.518 92.8902 311.453 92.8902Z" fill="#F1F1F1"/>
<path d="M281.512 95.783C287.78 95.783 292.861 90.7104 292.861 84.453C292.861 78.1956 287.78 73.123 281.512 73.123C275.245 73.123 270.164 78.1956 270.164 84.453C270.164 90.7104 275.245 95.783 281.512 95.783Z" fill="#F1F1F1"/>
<path d="M73.6265 88.3921C78.652 88.3921 82.726 84.3248 82.726 79.3075C82.726 74.2902 78.652 70.2229 73.6265 70.2229C68.601 70.2229 64.5271 74.2902 64.5271 79.3075C64.5271 84.3248 68.601 88.3921 73.6265 88.3921Z" fill="#F1F1F1"/>
<path d="M88.6078 94.501C92.1332 94.501 94.991 91.6479 94.991 88.1283C94.991 84.6087 92.1332 81.7555 88.6078 81.7555C85.0825 81.7555 82.2246 84.6087 82.2246 88.1283C82.2246 91.6479 85.0825 94.501 88.6078 94.501Z" fill="#F1F1F1"/>
<path d="M176.881 13.8887C180.722 13.8887 183.836 10.7796 183.836 6.94435C183.836 3.10909 180.722 0 176.881 0C173.039 0 169.925 3.10909 169.925 6.94435C169.925 10.7796 173.039 13.8887 176.881 13.8887Z" fill="#F1F1F1"/>
<path opacity="0.17" d="M135.428 153.254L136.05 148.463C136.05 148.463 159.243 150.153 155.619 155.839C151.995 161.524 143.194 162.041 143.194 162.041L135.428 153.254Z" fill="#2F2E41"/>
<path d="M152.936 132.42C154.264 132.566 155.544 133.004 156.683 133.702C157.822 134.401 158.792 135.342 159.523 136.459C160.19 137.478 160.643 138.621 160.856 139.819C161.069 141.018 161.037 142.247 160.762 143.433C160.488 144.618 159.976 145.737 159.257 146.72C158.539 147.703 157.628 148.531 156.581 149.155C156.197 149.381 155.797 149.578 155.382 149.743L141.126 193.278C140.713 194.137 140.134 194.906 139.423 195.541C138.711 196.176 137.88 196.664 136.979 196.977C136.078 197.291 135.123 197.423 134.17 197.367C133.217 197.311 132.285 197.067 131.427 196.65C130.569 196.233 129.802 195.651 129.17 194.936C128.538 194.222 128.053 193.391 127.745 192.489C127.436 191.587 127.308 190.634 127.37 189.683C127.431 188.732 127.68 187.803 128.103 186.948L143.264 143.896C142.851 142.472 142.796 140.968 143.104 139.517C143.412 138.066 144.073 136.714 145.029 135.579C145.986 134.445 147.207 133.563 148.586 133.012C149.965 132.461 151.459 132.258 152.936 132.42Z" fill="#FFB7B7"/>
<path d="M135.641 148.871C135.641 148.871 143.81 162.805 155.619 155.839L144.174 199.565H134.532L124.556 197.705L127.349 179.639L135.641 148.871Z" fill="#E5E5E5"/>
<path d="M193.967 158.394L187.2 149.119C187.2 149.119 190.453 139.499 203.064 143.017C203.064 143.017 211.089 160.95 193.967 158.394Z" fill="#E5E5E5"/>
<path opacity="0.17" d="M193.967 158.394L187.2 149.119C187.2 149.119 190.453 139.499 203.064 143.017C203.064 143.017 211.089 160.95 193.967 158.394Z" fill="#2F2E41"/>
<path d="M195.759 125.988C197.711 126.895 199.273 128.47 200.16 130.429C201.047 132.387 201.2 134.598 200.592 136.66L215.752 179.712C216.175 180.566 216.424 181.496 216.486 182.447C216.547 183.398 216.42 184.351 216.111 185.253C215.802 186.155 215.318 186.987 214.686 187.701C214.054 188.415 213.287 188.997 212.428 189.414C211.57 189.831 210.638 190.075 209.685 190.131C208.732 190.187 207.778 190.055 206.876 189.741C205.975 189.428 205.144 188.94 204.433 188.305C203.721 187.67 203.142 186.901 202.729 186.042L188.473 142.507C188.059 142.342 187.658 142.145 187.274 141.918C186.227 141.295 185.317 140.467 184.598 139.484C183.88 138.5 183.368 137.382 183.093 136.196C182.818 135.011 182.786 133.782 182.999 132.583C183.212 131.385 183.665 130.242 184.332 129.223C185.063 128.106 186.033 127.164 187.172 126.466C188.311 125.768 189.591 125.33 190.92 125.184C192.576 124.997 194.253 125.275 195.759 125.988Z" fill="#FFB7B7"/>
<path d="M187.2 149.119C187.2 149.119 198.365 155.883 203.064 143.017L218.797 184.374L214.122 192.537L213.446 192.593C210.657 192.825 207.853 192.378 205.276 191.29C202.698 190.202 200.423 188.505 198.647 186.346C195.025 181.942 192.559 176.706 191.472 171.111L187.2 149.119Z" fill="#E5E5E5"/>
</g>
<defs>
<clipPath id="clip0_652_15">
<rect width="336" height="310" fill="white"/>
</clipPath>
</defs>
</svg>
