<svg width="1440" height="358" viewBox="0 0 1440 358" fill="none" xmlns="http://www.w3.org/2000/svg">
<rect width="1440" height="358" fill="#DEE7F9"/>
<path d="M138.8 88.86L147.92 111.18L156.992 88.86H163.28V121.5H157.76V109.02L158.48 97.596L150.368 117.66H145.232L137.312 97.548L138.032 109.02V121.5H132.512V88.86H138.8ZM190.069 120.108C188.405 120.78 186.837 121.26 185.365 121.548C183.893 121.836 182.501 121.98 181.189 121.98C177.573 121.98 174.837 120.956 172.981 118.908C171.125 116.86 170.197 114.14 170.197 110.748V107.868C170.197 105.596 170.613 103.628 171.445 101.964C172.277 100.3 173.461 99.004 174.997 98.076C176.533 97.148 178.341 96.684 180.421 96.684C182.117 96.684 183.701 97.036 185.173 97.74C186.677 98.412 187.893 99.484 188.821 100.956C189.781 102.396 190.261 104.252 190.261 106.524C190.261 107.196 190.213 107.916 190.117 108.684C190.021 109.42 189.861 110.204 189.637 111.036H175.525C175.589 113.02 176.085 114.508 177.013 115.5C177.941 116.492 179.429 116.988 181.477 116.988C182.565 116.988 183.685 116.86 184.837 116.604C186.021 116.348 187.237 115.964 188.485 115.452L190.069 120.108ZM180.421 101.34C178.949 101.34 177.797 101.82 176.965 102.78C176.165 103.708 175.701 105.052 175.573 106.812H184.789C184.821 106.652 184.837 106.508 184.837 106.38C184.837 106.22 184.837 106.076 184.837 105.948C184.837 104.412 184.405 103.26 183.541 102.492C182.677 101.724 181.637 101.34 180.421 101.34ZM216.828 123.948C216.828 126.54 215.804 128.556 213.756 129.996C211.74 131.468 208.924 132.204 205.308 132.204C203.612 132.204 201.82 132.012 199.932 131.628C198.044 131.244 196.3 130.604 194.7 129.708L196.284 125.34C197.82 126.108 199.34 126.652 200.844 126.972C202.348 127.324 203.82 127.5 205.26 127.5C207.276 127.5 208.812 127.228 209.868 126.684C210.924 126.14 211.452 125.42 211.452 124.524C211.452 123.148 210.636 122.46 209.004 122.46H203.244C201.676 122.46 200.412 122.204 199.452 121.692C198.492 121.18 197.788 120.524 197.34 119.724C196.892 118.892 196.668 118.028 196.668 117.132C196.668 116.204 196.86 115.34 197.244 114.54C197.66 113.708 198.22 112.94 198.924 112.236C197.772 111.532 196.844 110.588 196.14 109.404C195.468 108.22 195.132 106.796 195.132 105.132C195.132 103.244 195.532 101.676 196.332 100.428C197.132 99.18 198.22 98.252 199.596 97.644C201.004 97.004 202.556 96.684 204.252 96.684H205.068C205.708 96.684 206.332 96.732 206.94 96.828C207.548 96.892 208.124 97.004 208.668 97.164H217.356V101.868L212.556 101.1C213.036 101.612 213.404 102.252 213.66 103.02C213.948 103.756 214.092 104.668 214.092 105.756C214.092 107.388 213.676 108.796 212.844 109.98C212.044 111.132 210.956 112.028 209.58 112.668C208.236 113.276 206.732 113.58 205.068 113.58H204.252C203.612 113.58 203.004 113.532 202.428 113.436C202.076 113.82 201.82 114.22 201.66 114.636C201.5 115.02 201.42 115.388 201.42 115.74C201.42 116.86 202.14 117.42 203.58 117.42H209.436C211.644 117.42 213.42 117.996 214.764 119.148C216.14 120.268 216.828 121.868 216.828 123.948ZM205.068 109.068C206.06 109.068 206.924 108.732 207.66 108.06C208.428 107.388 208.812 106.412 208.812 105.132C208.812 103.852 208.428 102.876 207.66 102.204C206.924 101.532 206.06 101.196 205.068 101.196H204.252C203.228 101.196 202.332 101.532 201.564 102.204C200.828 102.876 200.46 103.852 200.46 105.132C200.46 106.412 200.828 107.388 201.564 108.06C202.332 108.732 203.228 109.068 204.252 109.068H205.068ZM240.552 121.74C238.92 121.74 237.608 121.404 236.616 120.732C235.656 120.06 234.952 119.228 234.504 118.236C233.128 119.516 231.8 120.46 230.52 121.068C229.24 121.676 227.864 121.98 226.392 121.98C224.248 121.98 222.664 121.292 221.64 119.916C220.648 118.54 220.152 116.796 220.152 114.684C220.152 113.276 220.408 112.044 220.92 110.988C221.464 109.9 222.344 109.052 223.56 108.444C224.776 107.836 226.44 107.532 228.552 107.532C229.384 107.532 230.248 107.596 231.144 107.724C232.04 107.82 232.936 107.948 233.832 108.108V105.276C233.832 103.932 233.464 103.02 232.728 102.54C231.992 102.028 231 101.772 229.752 101.772C228.792 101.772 227.736 101.9 226.584 102.156C225.464 102.412 224.248 102.812 222.936 103.356L221.352 98.652C224.584 97.34 227.512 96.684 230.136 96.684C232.504 96.684 234.328 97.084 235.608 97.884C236.92 98.684 237.832 99.74 238.344 101.052C238.856 102.364 239.112 103.772 239.112 105.276V114.636C239.112 115.116 239.24 115.58 239.496 116.028C239.784 116.444 240.328 116.652 241.128 116.652H241.656V121.74H240.552ZM225.48 114.588C225.48 115.452 225.672 116.14 226.056 116.652C226.44 117.132 227 117.372 227.736 117.372C228.472 117.372 229.304 117.18 230.232 116.796C231.16 116.412 232.36 115.516 233.832 114.108V112.044C232.168 111.756 230.536 111.612 228.936 111.612C227.688 111.612 226.792 111.868 226.248 112.38C225.736 112.892 225.48 113.628 225.48 114.588ZM279.866 101.724V108.588C279.866 112.748 278.826 116.028 276.746 118.428C274.666 120.796 271.626 121.98 267.626 121.98C263.594 121.98 260.538 120.796 258.458 118.428C256.41 116.028 255.386 112.748 255.386 108.588V101.724C255.386 97.564 256.41 94.3 258.458 91.932C260.538 89.564 263.594 88.38 267.626 88.38C271.626 88.38 274.666 89.564 276.746 91.932C278.826 94.3 279.866 97.564 279.866 101.724ZM273.962 101.724C273.962 99.1 273.45 97.132 272.426 95.82C271.402 94.476 269.802 93.804 267.626 93.804C265.45 93.804 263.85 94.476 262.826 95.82C261.802 97.132 261.29 99.1 261.29 101.724V108.588C261.29 111.212 261.802 113.196 262.826 114.54C263.85 115.884 265.45 116.556 267.626 116.556C269.802 116.556 271.402 115.884 272.426 114.54C273.45 113.196 273.962 111.212 273.962 108.588V101.724ZM300.825 101.964H293.241V121.5H287.721V101.964H283.785V97.164H287.721V94.62C287.721 91.964 288.393 89.788 289.737 88.092C291.081 86.364 293.241 85.5 296.217 85.5C297.305 85.5 298.425 85.612 299.577 85.836C300.729 86.06 301.769 86.348 302.697 86.7L301.353 91.452C299.817 90.94 298.441 90.684 297.225 90.684C295.945 90.684 294.953 90.972 294.249 91.548C293.577 92.092 293.241 93.116 293.241 94.62V97.164H300.825V101.964ZM323.335 120.108C321.671 120.78 320.103 121.26 318.631 121.548C317.159 121.836 315.767 121.98 314.455 121.98C310.839 121.98 308.103 120.956 306.247 118.908C304.391 116.86 303.463 114.14 303.463 110.748V107.868C303.463 105.596 303.879 103.628 304.711 101.964C305.543 100.3 306.727 99.004 308.263 98.076C309.799 97.148 311.607 96.684 313.687 96.684C315.383 96.684 316.967 97.036 318.439 97.74C319.943 98.412 321.159 99.484 322.087 100.956C323.047 102.396 323.527 104.252 323.527 106.524C323.527 107.196 323.479 107.916 323.383 108.684C323.287 109.42 323.127 110.204 322.903 111.036H308.791C308.855 113.02 309.351 114.508 310.279 115.5C311.207 116.492 312.695 116.988 314.743 116.988C315.831 116.988 316.951 116.86 318.103 116.604C319.287 116.348 320.503 115.964 321.751 115.452L323.335 120.108ZM313.687 101.34C312.215 101.34 311.063 101.82 310.231 102.78C309.431 103.708 308.967 105.052 308.839 106.812H318.055C318.087 106.652 318.103 106.508 318.103 106.38C318.103 106.22 318.103 106.076 318.103 105.948C318.103 104.412 317.671 103.26 316.807 102.492C315.943 101.724 314.903 101.34 313.687 101.34ZM343.614 102.204C342.11 102.204 340.67 102.444 339.294 102.924C337.95 103.372 336.654 104.108 335.406 105.132V121.5H329.886V97.164H335.118V100.908C336.75 99.372 338.206 98.284 339.486 97.644C340.766 97.004 342.142 96.684 343.614 96.684V102.204ZM363.088 120.684C362.256 121.068 361.296 121.372 360.208 121.596C359.12 121.852 358.016 121.98 356.896 121.98C355.04 121.98 353.552 121.596 352.432 120.828C351.312 120.06 350.496 118.988 349.984 117.612C349.504 116.236 349.264 114.668 349.264 112.908V101.964H345.328V97.164H349.264V90.828H354.784V97.164H362.368V101.964H354.784V112.908C354.784 114.38 355.056 115.404 355.6 115.98C356.176 116.524 356.992 116.796 358.048 116.796C358.56 116.796 359.104 116.748 359.68 116.652C360.288 116.524 360.96 116.316 361.696 116.028L363.088 120.684ZM385.958 121.74C384.326 121.74 383.014 121.404 382.022 120.732C381.062 120.06 380.358 119.228 379.91 118.236C378.534 119.516 377.206 120.46 375.926 121.068C374.646 121.676 373.27 121.98 371.798 121.98C369.654 121.98 368.07 121.292 367.046 119.916C366.054 118.54 365.558 116.796 365.558 114.684C365.558 113.276 365.814 112.044 366.326 110.988C366.87 109.9 367.75 109.052 368.966 108.444C370.182 107.836 371.846 107.532 373.958 107.532C374.79 107.532 375.654 107.596 376.55 107.724C377.446 107.82 378.342 107.948 379.238 108.108V105.276C379.238 103.932 378.87 103.02 378.134 102.54C377.398 102.028 376.406 101.772 375.158 101.772C374.198 101.772 373.142 101.9 371.99 102.156C370.87 102.412 369.654 102.812 368.342 103.356L366.758 98.652C369.99 97.34 372.918 96.684 375.542 96.684C377.91 96.684 379.734 97.084 381.014 97.884C382.326 98.684 383.238 99.74 383.75 101.052C384.262 102.364 384.518 103.772 384.518 105.276V114.636C384.518 115.116 384.646 115.58 384.902 116.028C385.19 116.444 385.734 116.652 386.534 116.652H387.062V121.74H385.958ZM370.886 114.588C370.886 115.452 371.078 116.14 371.462 116.652C371.846 117.132 372.406 117.372 373.142 117.372C373.878 117.372 374.71 117.18 375.638 116.796C376.566 116.412 377.766 115.516 379.238 114.108V112.044C377.574 111.756 375.942 111.612 374.342 111.612C373.094 111.612 372.198 111.868 371.654 112.38C371.142 112.892 370.886 113.628 370.886 114.588ZM415.72 121.5V118.188C414.248 119.66 412.968 120.668 411.88 121.212C410.824 121.724 409.72 121.98 408.568 121.98C405.944 121.98 403.896 120.988 402.424 119.004C400.984 117.02 400.264 114.236 400.264 110.652V108.06C400.264 104.572 401.144 101.804 402.904 99.756C404.664 97.708 407.208 96.684 410.536 96.684C411.368 96.684 412.184 96.764 412.984 96.924C413.816 97.084 414.632 97.308 415.432 97.596V85.98H420.952V121.5H415.72ZM405.928 110.652C405.928 112.796 406.28 114.364 406.984 115.356C407.72 116.348 408.744 116.844 410.056 116.844C410.792 116.844 411.576 116.636 412.408 116.22C413.24 115.772 414.248 114.94 415.432 113.724V102.588C413.864 101.948 412.424 101.628 411.112 101.628C409.256 101.628 407.928 102.204 407.128 103.356C406.328 104.508 405.928 106.076 405.928 108.06V110.652ZM447.038 120.108C445.374 120.78 443.806 121.26 442.334 121.548C440.862 121.836 439.47 121.98 438.158 121.98C434.542 121.98 431.806 120.956 429.95 118.908C428.094 116.86 427.166 114.14 427.166 110.748V107.868C427.166 105.596 427.582 103.628 428.414 101.964C429.246 100.3 430.43 99.004 431.966 98.076C433.502 97.148 435.31 96.684 437.39 96.684C439.086 96.684 440.67 97.036 442.142 97.74C443.646 98.412 444.862 99.484 445.79 100.956C446.75 102.396 447.23 104.252 447.23 106.524C447.23 107.196 447.182 107.916 447.086 108.684C446.99 109.42 446.83 110.204 446.606 111.036H432.494C432.558 113.02 433.054 114.508 433.982 115.5C434.91 116.492 436.398 116.988 438.446 116.988C439.534 116.988 440.654 116.86 441.806 116.604C442.99 116.348 444.206 115.964 445.454 115.452L447.038 120.108ZM437.39 101.34C435.918 101.34 434.766 101.82 433.934 102.78C433.134 103.708 432.67 105.052 432.542 106.812H441.758C441.79 106.652 441.806 106.508 441.806 106.38C441.806 106.22 441.806 106.076 441.806 105.948C441.806 104.412 441.374 103.26 440.51 102.492C439.646 101.724 438.606 101.34 437.39 101.34ZM468.334 108.588C468.334 110.924 468.846 112.844 469.87 114.348C470.894 115.82 472.574 116.556 474.91 116.556C475.87 116.556 476.862 116.428 477.886 116.172C478.942 115.916 480.238 115.484 481.774 114.876L483.55 119.868C481.822 120.636 480.222 121.18 478.75 121.5C477.31 121.82 475.918 121.98 474.574 121.98C471.886 121.98 469.63 121.404 467.806 120.252C466.014 119.1 464.67 117.516 463.774 115.5C462.878 113.484 462.43 111.18 462.43 108.588V101.724C462.43 99.132 462.878 96.828 463.774 94.812C464.67 92.796 466.014 91.228 467.806 90.108C469.63 88.956 471.886 88.38 474.574 88.38C475.886 88.38 477.246 88.54 478.654 88.86C480.062 89.148 481.598 89.66 483.262 90.396L481.486 95.484C480.014 94.876 478.782 94.444 477.79 94.188C476.798 93.932 475.838 93.804 474.91 93.804C472.574 93.804 470.894 94.54 469.87 96.012C468.846 97.484 468.334 99.388 468.334 101.724V108.588ZM502.397 121.5V118.284C500.925 119.564 499.549 120.508 498.269 121.116C496.989 121.692 495.693 121.98 494.381 121.98C492.205 121.98 490.525 121.244 489.341 119.772C488.157 118.268 487.565 116.172 487.565 113.484V97.164H493.085V112.812C493.085 115.5 494.077 116.844 496.061 116.844C496.861 116.844 497.725 116.652 498.653 116.268C499.613 115.884 500.765 115.148 502.109 114.06V97.164H507.629V121.5H502.397ZM525.646 121.98C524.846 121.98 524.03 121.9 523.198 121.74C522.398 121.58 521.582 121.356 520.75 121.068V131.724H515.23V97.164H520.462V100.476C521.966 98.972 523.246 97.964 524.302 97.452C525.358 96.94 526.462 96.684 527.614 96.684C530.27 96.684 532.318 97.676 533.758 99.66C535.198 101.644 535.918 104.428 535.918 108.012V110.604C535.918 114.092 535.038 116.86 533.278 118.908C531.518 120.956 528.974 121.98 525.646 121.98ZM526.126 101.82C525.39 101.82 524.606 102.044 523.773 102.492C522.974 102.908 521.966 103.724 520.75 104.94V116.076C522.318 116.716 523.758 117.036 525.07 117.036C526.926 117.036 528.254 116.46 529.054 115.308C529.854 114.156 530.254 112.588 530.254 110.604V108.012C530.254 105.868 529.886 104.3 529.15 103.308C528.446 102.316 527.438 101.82 526.126 101.82ZM562.243 107.868V110.748C562.243 114.14 561.315 116.86 559.459 118.908C557.603 120.956 554.979 121.98 551.587 121.98C548.195 121.98 545.571 120.956 543.715 118.908C541.859 116.86 540.931 114.14 540.931 110.748V107.868C540.931 104.476 541.843 101.772 543.667 99.756C545.523 97.708 548.163 96.684 551.587 96.684C555.011 96.684 557.635 97.708 559.459 99.756C561.315 101.772 562.243 104.476 562.243 107.868ZM556.579 107.868C556.579 105.916 556.147 104.396 555.283 103.308C554.419 102.188 553.187 101.628 551.587 101.628C549.987 101.628 548.755 102.188 547.891 103.308C547.027 104.396 546.595 105.916 546.595 107.868V110.748C546.595 112.7 547.027 114.236 547.891 115.356C548.755 116.476 549.987 117.036 551.587 117.036C553.187 117.036 554.419 116.476 555.283 115.356C556.147 114.236 556.579 112.7 556.579 110.748V107.868ZM580.337 101.82C579.537 101.82 578.625 102.012 577.601 102.396C576.577 102.78 575.361 103.532 573.953 104.652V121.5H568.433V97.164H573.665V100.428C575.169 99.116 576.593 98.172 577.937 97.596C579.281 96.988 580.641 96.684 582.017 96.684C584.353 96.684 586.129 97.436 587.345 98.94C588.561 100.412 589.169 102.492 589.169 105.18V121.5H583.649V105.852C583.649 103.164 582.545 101.82 580.337 101.82ZM603.28 117.18C604.464 117.18 605.44 116.988 606.208 116.604C606.976 116.188 607.36 115.58 607.36 114.78C607.36 114.076 607.104 113.532 606.592 113.148C606.112 112.732 605.232 112.364 603.952 112.044L601.216 111.324C599.104 110.78 597.536 109.868 596.512 108.588C595.52 107.308 595.024 105.788 595.024 104.028C595.024 101.948 595.744 100.204 597.184 98.796C598.624 97.388 600.848 96.684 603.856 96.684C605.072 96.684 606.352 96.828 607.696 97.116C609.04 97.404 610.448 97.868 611.92 98.508L610.336 103.212C608.992 102.572 607.776 102.124 606.688 101.868C605.6 101.612 604.64 101.484 603.808 101.484C601.536 101.484 600.4 102.252 600.4 103.788C600.4 104.396 600.592 104.876 600.976 105.228C601.392 105.58 602.144 105.9 603.232 106.188L605.968 106.908C608.304 107.516 610 108.444 611.056 109.692C612.144 110.94 612.688 112.508 612.688 114.396C612.688 116.636 611.92 118.46 610.384 119.868C608.88 121.276 606.496 121.98 603.232 121.98C600.448 121.98 597.52 121.34 594.448 120.06L595.936 115.5C597.44 116.108 598.8 116.54 600.016 116.796C601.232 117.052 602.32 117.18 603.28 117.18Z" fill="#246590"/>
<rect x="128" y="172.5" width="421" height="108" rx="24" fill="white"/>
<path d="M178.874 211.02C178.874 213.025 179.268 214.572 180.058 215.66C180.868 216.727 182.106 217.26 183.77 217.26C184.495 217.26 185.21 217.175 185.914 217.004C186.618 216.833 187.46 216.535 188.442 216.108L189.37 218.476C188.324 218.945 187.332 219.287 186.394 219.5C185.455 219.713 184.548 219.82 183.674 219.82C181.156 219.82 179.247 219.031 177.946 217.452C176.644 215.873 175.994 213.729 175.994 211.02V206.22C175.994 203.511 176.644 201.367 177.946 199.788C179.247 198.209 181.156 197.42 183.674 197.42C184.548 197.42 185.455 197.527 186.394 197.74C187.354 197.953 188.324 198.295 189.306 198.764L188.41 201.164C186.682 200.396 185.135 200.012 183.77 200.012C182.106 200.012 180.868 200.545 180.058 201.612C179.268 202.679 178.874 204.215 178.874 206.22V211.02ZM205.141 210.604V212.524C205.141 214.785 204.555 216.567 203.381 217.868C202.229 219.169 200.576 219.82 198.421 219.82C196.288 219.82 194.635 219.169 193.461 217.868C192.288 216.567 191.701 214.785 191.701 212.524V210.604C191.701 208.385 192.277 206.625 193.429 205.324C194.603 204.001 196.267 203.34 198.421 203.34C200.576 203.34 202.229 204.001 203.381 205.324C204.555 206.625 205.141 208.385 205.141 210.604ZM202.421 210.604C202.421 209.089 202.08 207.905 201.397 207.052C200.715 206.177 199.723 205.74 198.421 205.74C197.141 205.74 196.149 206.177 195.445 207.052C194.763 207.905 194.421 209.089 194.421 210.604V212.524C194.421 214.103 194.763 215.319 195.445 216.172C196.149 217.025 197.141 217.452 198.421 217.452C199.723 217.452 200.715 217.025 201.397 216.172C202.08 215.319 202.421 214.103 202.421 212.524V210.604ZM217.366 205.804C216.768 205.804 216.096 205.964 215.35 206.284C214.603 206.583 213.664 207.18 212.534 208.076V219.5H209.91V203.66H212.406V205.868C213.536 204.929 214.539 204.279 215.414 203.916C216.288 203.532 217.152 203.34 218.006 203.34C219.008 203.34 219.84 203.575 220.502 204.044C221.163 204.492 221.654 205.143 221.974 205.996C223.147 204.993 224.192 204.3 225.11 203.916C226.048 203.532 226.966 203.34 227.862 203.34C229.27 203.34 230.347 203.809 231.094 204.748C231.84 205.665 232.214 206.977 232.214 208.684V219.5H229.59V209.068C229.59 206.892 228.8 205.804 227.222 205.804C226.624 205.804 225.942 205.964 225.174 206.284C224.427 206.583 223.488 207.18 222.358 208.076C222.379 208.161 222.39 208.257 222.39 208.364C222.39 208.471 222.39 208.577 222.39 208.684V219.5H219.766V209.068C219.766 206.892 218.966 205.804 217.366 205.804ZM244.058 219.82C242.864 219.82 241.626 219.575 240.346 219.084V226.316H237.722V203.66H240.218V205.9C241.2 204.961 242.096 204.3 242.906 203.916C243.717 203.532 244.549 203.34 245.402 203.34C247.088 203.34 248.378 203.98 249.274 205.26C250.192 206.54 250.65 208.343 250.65 210.668V212.524C250.65 214.743 250.085 216.513 248.954 217.836C247.845 219.159 246.213 219.82 244.058 219.82ZM244.762 205.804C244.144 205.804 243.504 205.964 242.842 206.284C242.181 206.604 241.349 207.255 240.346 208.236V216.684C240.965 216.961 241.562 217.164 242.138 217.292C242.714 217.399 243.28 217.452 243.834 217.452C245.285 217.452 246.33 217.015 246.97 216.14C247.61 215.244 247.93 214.039 247.93 212.524V210.668C247.93 209.004 247.664 207.777 247.13 206.988C246.618 206.199 245.829 205.804 244.762 205.804ZM263.824 205.964C262.864 205.964 261.925 206.135 261.008 206.476C260.112 206.817 259.152 207.468 258.128 208.428V219.5H255.504V203.66H258V206.22C259.088 205.153 260.08 204.407 260.976 203.98C261.893 203.553 262.842 203.34 263.824 203.34V205.964ZM278.742 218.572C277.782 219.041 276.822 219.361 275.862 219.532C274.902 219.724 274.016 219.82 273.206 219.82C270.923 219.82 269.216 219.169 268.086 217.868C266.976 216.567 266.422 214.785 266.422 212.524V210.604C266.422 208.407 266.976 206.647 268.086 205.324C269.216 204.001 270.806 203.34 272.854 203.34C273.942 203.34 274.934 203.564 275.83 204.012C276.747 204.439 277.472 205.1 278.006 205.996C278.56 206.871 278.838 208.001 278.838 209.388C278.838 210.284 278.71 211.308 278.454 212.46H269.014V212.524C269.014 214.145 269.344 215.372 270.006 216.204C270.688 217.036 271.776 217.452 273.27 217.452C273.952 217.452 274.699 217.367 275.51 217.196C276.342 217.025 277.152 216.759 277.942 216.396L278.742 218.572ZM272.854 205.644C271.616 205.644 270.678 206.049 270.038 206.86C269.419 207.649 269.078 208.769 269.014 210.22H276.182C276.246 209.836 276.278 209.473 276.278 209.132C276.278 207.937 275.936 207.063 275.254 206.508C274.592 205.932 273.792 205.644 272.854 205.644ZM301.835 218.572C300.875 219.041 299.915 219.361 298.955 219.532C297.995 219.724 297.11 219.82 296.299 219.82C294.017 219.82 292.31 219.169 291.179 217.868C290.07 216.567 289.515 214.785 289.515 212.524V210.604C289.515 208.407 290.07 206.647 291.179 205.324C292.31 204.001 293.899 203.34 295.947 203.34C297.035 203.34 298.027 203.564 298.923 204.012C299.841 204.439 300.566 205.1 301.099 205.996C301.654 206.871 301.931 208.001 301.931 209.388C301.931 210.284 301.803 211.308 301.547 212.46H292.107V212.524C292.107 214.145 292.438 215.372 293.099 216.204C293.782 217.036 294.87 217.452 296.363 217.452C297.046 217.452 297.793 217.367 298.603 217.196C299.435 217.025 300.246 216.759 301.035 216.396L301.835 218.572ZM295.947 205.644C294.71 205.644 293.771 206.049 293.131 206.86C292.513 207.649 292.171 208.769 292.107 210.22H299.275C299.339 209.836 299.371 209.473 299.371 209.132C299.371 207.937 299.03 207.063 298.347 206.508C297.686 205.932 296.886 205.644 295.947 205.644ZM319.272 212.524C319.272 214.743 318.718 216.513 317.608 217.836C316.499 219.159 314.867 219.82 312.712 219.82C310.579 219.82 308.467 219.255 306.376 218.124V195.82H309V205.804C309.96 204.908 310.835 204.279 311.624 203.916C312.435 203.532 313.256 203.34 314.088 203.34C315.752 203.34 317.032 203.98 317.928 205.26C318.824 206.54 319.272 208.343 319.272 210.668V212.524ZM313.448 205.804C312.851 205.804 312.211 205.964 311.528 206.284C310.867 206.604 310.024 207.265 309 208.268V216.652C310.259 217.185 311.443 217.452 312.552 217.452C313.982 217.452 315.006 217.015 315.624 216.14C316.243 215.244 316.552 214.039 316.552 212.524V210.668C316.552 209.004 316.296 207.777 315.784 206.988C315.272 206.199 314.494 205.804 313.448 205.804ZM336.673 210.604V212.524C336.673 214.785 336.086 216.567 334.913 217.868C333.761 219.169 332.107 219.82 329.953 219.82C327.819 219.82 326.166 219.169 324.993 217.868C323.819 216.567 323.233 214.785 323.233 212.524V210.604C323.233 208.385 323.809 206.625 324.961 205.324C326.134 204.001 327.798 203.34 329.953 203.34C332.107 203.34 333.761 204.001 334.913 205.324C336.086 206.625 336.673 208.385 336.673 210.604ZM333.953 210.604C333.953 209.089 333.611 207.905 332.929 207.052C332.246 206.177 331.254 205.74 329.953 205.74C328.673 205.74 327.681 206.177 326.977 207.052C326.294 207.905 325.953 209.089 325.953 210.604V212.524C325.953 214.103 326.294 215.319 326.977 216.172C327.681 217.025 328.673 217.452 329.953 217.452C331.254 217.452 332.246 217.025 332.929 216.172C333.611 215.319 333.953 214.103 333.953 212.524V210.604ZM353.985 210.604V212.524C353.985 214.785 353.398 216.567 352.225 217.868C351.073 219.169 349.42 219.82 347.265 219.82C345.132 219.82 343.478 219.169 342.305 217.868C341.132 216.567 340.545 214.785 340.545 212.524V210.604C340.545 208.385 341.121 206.625 342.273 205.324C343.446 204.001 345.11 203.34 347.265 203.34C349.42 203.34 351.073 204.001 352.225 205.324C353.398 206.625 353.985 208.385 353.985 210.604ZM351.265 210.604C351.265 209.089 350.924 207.905 350.241 207.052C349.558 206.177 348.566 205.74 347.265 205.74C345.985 205.74 344.993 206.177 344.289 207.052C343.606 207.905 343.265 209.089 343.265 210.604V212.524C343.265 214.103 343.606 215.319 344.289 216.172C344.993 217.025 345.985 217.452 347.265 217.452C348.566 217.452 349.558 217.025 350.241 216.172C350.924 215.319 351.265 214.103 351.265 212.524V210.604ZM368.514 219.5L364.066 212.172C363.66 212.577 363.234 212.993 362.786 213.42C362.338 213.847 361.868 214.273 361.378 214.7V219.5H358.754V195.82H361.378V211.756C362.764 210.412 363.991 209.1 365.058 207.82C366.146 206.54 367.138 205.153 368.034 203.66H371.042C370.274 204.94 369.484 206.124 368.674 207.212C367.884 208.279 366.988 209.367 365.986 210.476L371.682 219.5H368.514ZM378.876 217.484C381.009 217.484 382.076 216.759 382.076 215.308C382.076 214.689 381.884 214.199 381.5 213.836C381.116 213.473 380.412 213.164 379.388 212.908L377.628 212.46C376.326 212.14 375.356 211.585 374.716 210.796C374.076 209.985 373.756 209.025 373.756 207.916C373.756 207.105 373.937 206.359 374.299 205.676C374.662 204.972 375.238 204.407 376.028 203.98C376.817 203.553 377.841 203.34 379.1 203.34C379.91 203.34 380.732 203.436 381.564 203.628C382.417 203.799 383.281 204.097 384.156 204.524L383.324 206.732C381.766 206.028 380.358 205.676 379.1 205.676C377.244 205.676 376.316 206.369 376.316 207.756C376.316 208.289 376.486 208.748 376.828 209.132C377.169 209.516 377.809 209.825 378.748 210.06L380.508 210.508C381.916 210.849 382.95 211.404 383.612 212.172C384.273 212.94 384.604 213.932 384.604 215.148C384.604 216.023 384.412 216.823 384.028 217.548C383.665 218.252 383.068 218.807 382.236 219.212C381.425 219.617 380.326 219.82 378.94 219.82C378.022 219.82 377.105 219.724 376.188 219.532C375.292 219.34 374.364 219.031 373.404 218.604L374.108 216.428C375.025 216.791 375.857 217.057 376.604 217.228C377.35 217.399 378.108 217.484 378.876 217.484ZM397.61 210.636V212.524C397.61 214.145 397.908 215.372 398.506 216.204C399.103 217.015 400.052 217.42 401.354 217.42C402.634 217.42 404.01 217.089 405.482 216.428L406.282 218.636C404.532 219.425 402.836 219.82 401.194 219.82C399.146 219.82 397.588 219.169 396.522 217.868C395.455 216.567 394.922 214.785 394.922 212.524V210.636C394.922 208.375 395.455 206.593 396.522 205.292C397.588 203.991 399.146 203.34 401.194 203.34C401.962 203.34 402.751 203.447 403.562 203.66C404.394 203.852 405.226 204.129 406.058 204.492L405.258 206.732C404.554 206.433 403.871 206.199 403.21 206.028C402.57 205.857 401.951 205.772 401.354 205.772C400.052 205.772 399.103 206.188 398.506 207.02C397.908 207.831 397.61 209.036 397.61 210.636ZM422.61 210.604V212.524C422.61 214.785 422.023 216.567 420.85 217.868C419.698 219.169 418.045 219.82 415.89 219.82C413.757 219.82 412.103 219.169 410.93 217.868C409.757 216.567 409.17 214.785 409.17 212.524V210.604C409.17 208.385 409.746 206.625 410.898 205.324C412.071 204.001 413.735 203.34 415.89 203.34C418.045 203.34 419.698 204.001 420.85 205.324C422.023 206.625 422.61 208.385 422.61 210.604ZM419.89 210.604C419.89 209.089 419.549 207.905 418.866 207.052C418.183 206.177 417.191 205.74 415.89 205.74C414.61 205.74 413.618 206.177 412.914 207.052C412.231 207.905 411.89 209.089 411.89 210.604V212.524C411.89 214.103 412.231 215.319 412.914 216.172C413.618 217.025 414.61 217.452 415.89 217.452C417.191 217.452 418.183 217.025 418.866 216.172C419.549 215.319 419.89 214.103 419.89 212.524V210.604ZM434.835 205.804C434.237 205.804 433.565 205.964 432.819 206.284C432.072 206.583 431.133 207.18 430.003 208.076V219.5H427.379V203.66H429.875V205.868C431.005 204.929 432.008 204.279 432.883 203.916C433.757 203.532 434.621 203.34 435.475 203.34C436.477 203.34 437.309 203.575 437.971 204.044C438.632 204.492 439.123 205.143 439.443 205.996C440.616 204.993 441.661 204.3 442.579 203.916C443.517 203.532 444.435 203.34 445.331 203.34C446.739 203.34 447.816 203.809 448.563 204.748C449.309 205.665 449.683 206.977 449.683 208.684V219.5H447.059V209.068C447.059 206.892 446.269 205.804 444.691 205.804C444.093 205.804 443.411 205.964 442.642 206.284C441.896 206.583 440.957 207.18 439.827 208.076C439.848 208.161 439.859 208.257 439.859 208.364C439.859 208.471 439.859 208.577 439.859 208.684V219.5H437.235V209.068C437.235 206.892 436.435 205.804 434.835 205.804ZM473.744 219.66C472.762 219.66 471.973 219.436 471.376 218.988C470.8 218.54 470.394 217.985 470.16 217.324C469.114 218.241 468.165 218.892 467.312 219.276C466.458 219.639 465.605 219.82 464.752 219.82C463.365 219.82 462.341 219.372 461.68 218.476C461.018 217.58 460.688 216.481 460.688 215.18C460.688 214.305 460.848 213.527 461.168 212.844C461.488 212.161 462.032 211.628 462.8 211.244C463.568 210.839 464.602 210.636 465.904 210.636C466.48 210.636 467.109 210.679 467.792 210.764C468.474 210.828 469.168 210.913 469.872 211.02V208.876C469.872 207.681 469.605 206.871 469.072 206.444C468.56 205.996 467.802 205.772 466.8 205.772C465.434 205.772 463.909 206.145 462.224 206.892L461.392 204.716C462.373 204.268 463.312 203.927 464.208 203.692C465.104 203.457 466.01 203.34 466.928 203.34C468.421 203.34 469.562 203.585 470.352 204.076C471.141 204.567 471.685 205.217 471.984 206.028C472.282 206.839 472.432 207.724 472.432 208.684V215.532C472.432 216.023 472.528 216.439 472.72 216.78C472.912 217.1 473.296 217.26 473.872 217.26H474.224V219.66H473.744ZM463.28 215.148C463.28 215.873 463.45 216.46 463.792 216.908C464.133 217.356 464.624 217.58 465.264 217.58C465.818 217.58 466.458 217.42 467.184 217.1C467.909 216.759 468.805 216.087 469.872 215.084V213.068C468.421 212.833 467.141 212.716 466.032 212.716C465.05 212.716 464.346 212.919 463.92 213.324C463.493 213.729 463.28 214.337 463.28 215.148ZM486.645 218.924C485.45 219.521 484.181 219.82 482.837 219.82C481.685 219.82 480.778 219.585 480.117 219.116C479.477 218.647 479.018 218.017 478.741 217.228C478.485 216.439 478.357 215.564 478.357 214.604V205.964H475.605V203.66H478.357V199.244H480.981V203.66H486.165V205.964H480.981V214.508C480.981 215.617 481.162 216.385 481.525 216.812C481.909 217.217 482.496 217.42 483.285 217.42C483.669 217.42 484.064 217.377 484.469 217.292C484.896 217.185 485.354 217.015 485.845 216.78L486.645 218.924ZM501.585 218.572C500.625 219.041 499.665 219.361 498.705 219.532C497.745 219.724 496.86 219.82 496.049 219.82C493.767 219.82 492.06 219.169 490.929 217.868C489.82 216.567 489.265 214.785 489.265 212.524V210.604C489.265 208.407 489.82 206.647 490.929 205.324C492.06 204.001 493.649 203.34 495.697 203.34C496.785 203.34 497.777 203.564 498.673 204.012C499.591 204.439 500.316 205.1 500.849 205.996C501.404 206.871 501.681 208.001 501.681 209.388C501.681 210.284 501.553 211.308 501.297 212.46H491.857V212.524C491.857 214.145 492.188 215.372 492.849 216.204C493.532 217.036 494.62 217.452 496.113 217.452C496.796 217.452 497.543 217.367 498.353 217.196C499.185 217.025 499.996 216.759 500.785 216.396L501.585 218.572ZM495.697 205.644C494.46 205.644 493.521 206.049 492.881 206.86C492.263 207.649 491.921 208.769 491.857 210.22H499.025C499.089 209.836 499.121 209.473 499.121 209.132C499.121 207.937 498.78 207.063 498.097 206.508C497.436 205.932 496.636 205.644 495.697 205.644ZM496.849 200.972H494.577L497.457 195.66L499.953 196.812L496.849 200.972Z" fill="#212121"/>
<path d="M281.269 246.268L281.909 235.74H293.045V239.356H285.301L285.013 244.156C285.76 243.964 286.56 243.868 287.413 243.868C289.525 243.868 291.178 244.423 292.373 245.532C293.568 246.62 294.165 248.231 294.165 250.364V251.228C294.165 252.423 293.92 253.521 293.429 254.524C292.938 255.527 292.149 256.327 291.061 256.924C289.994 257.521 288.576 257.82 286.805 257.82C285.824 257.82 284.8 257.703 283.733 257.468C282.688 257.233 281.536 256.839 280.277 256.284L281.461 252.988C282.592 253.436 283.541 253.767 284.309 253.98C285.098 254.172 285.888 254.268 286.677 254.268C287.872 254.268 288.768 254.023 289.365 253.532C289.984 253.041 290.293 252.273 290.293 251.228V250.364C290.293 249.425 290.016 248.679 289.461 248.124C288.928 247.569 288.064 247.292 286.869 247.292C286.336 247.292 285.781 247.367 285.205 247.516C284.629 247.644 284.01 247.836 283.349 248.092L281.269 246.268ZM313.159 244.316V248.892C313.159 251.665 312.508 253.852 311.207 255.452C309.905 257.031 307.996 257.82 305.479 257.82C302.961 257.82 301.052 257.031 299.751 255.452C298.449 253.852 297.799 251.665 297.799 248.892V244.316C297.799 241.543 298.449 239.367 299.751 237.788C301.052 236.209 302.961 235.42 305.479 235.42C307.996 235.42 309.905 236.209 311.207 237.788C312.508 239.367 313.159 241.543 313.159 244.316ZM309.287 244.316C309.287 240.753 308.017 238.972 305.479 238.972C304.177 238.972 303.217 239.42 302.599 240.316C301.98 241.212 301.671 242.545 301.671 244.316V248.892C301.671 250.663 301.98 252.007 302.599 252.924C303.217 253.82 304.177 254.268 305.479 254.268C308.017 254.268 309.287 252.476 309.287 248.892V244.316ZM325.17 240.028V241.02C325.17 242.407 324.797 243.505 324.05 244.316C323.325 245.105 322.237 245.5 320.786 245.5C319.335 245.5 318.237 245.105 317.49 244.316C316.765 243.505 316.402 242.407 316.402 241.02V240.028C316.402 238.641 316.765 237.553 317.49 236.764C318.237 235.975 319.335 235.58 320.786 235.58C322.237 235.58 323.325 235.975 324.05 236.764C324.797 237.553 325.17 238.641 325.17 240.028ZM330.77 235.74H333.65L323.122 257.5H320.242L330.77 235.74ZM322.61 240.028C322.61 238.663 322.002 237.98 320.786 237.98C319.591 237.98 318.994 238.663 318.994 240.028V241.02C318.994 242.385 319.591 243.068 320.786 243.068C322.002 243.068 322.61 242.385 322.61 241.02V240.028ZM337.522 252.188V253.18C337.522 254.567 337.149 255.665 336.402 256.476C335.677 257.265 334.589 257.66 333.138 257.66C331.687 257.66 330.589 257.265 329.842 256.476C329.117 255.665 328.754 254.567 328.754 253.18V252.188C328.754 250.801 329.117 249.713 329.842 248.924C330.589 248.135 331.687 247.74 333.138 247.74C334.589 247.74 335.677 248.135 336.402 248.924C337.149 249.713 337.522 250.801 337.522 252.188ZM334.962 252.188C334.962 250.823 334.354 250.14 333.138 250.14C331.943 250.14 331.346 250.823 331.346 252.188V253.18C331.346 254.545 331.943 255.228 333.138 255.228C334.354 255.228 334.962 254.545 334.962 253.18V252.188ZM363.494 244.316V248.892C363.494 251.665 362.8 253.852 361.414 255.452C360.027 257.031 358 257.82 355.334 257.82C352.646 257.82 350.608 257.031 349.222 255.452C347.856 253.852 347.174 251.665 347.174 248.892V244.316C347.174 241.543 347.856 239.367 349.222 237.788C350.608 236.209 352.646 235.42 355.334 235.42C358 235.42 360.027 236.209 361.414 237.788C362.8 239.367 363.494 241.543 363.494 244.316ZM359.558 244.316C359.558 242.567 359.216 241.255 358.534 240.38C357.851 239.484 356.784 239.036 355.334 239.036C353.883 239.036 352.816 239.484 352.134 240.38C351.451 241.255 351.11 242.567 351.11 244.316V248.892C351.11 250.641 351.451 251.964 352.134 252.86C352.816 253.756 353.883 254.204 355.334 254.204C356.784 254.204 357.851 253.756 358.534 252.86C359.216 251.964 359.558 250.641 359.558 248.892V244.316ZM379.707 249.148H372.411V257.5H368.571V235.74H380.667V239.42H372.411V245.468H379.707V249.148ZM395.863 249.148H388.567V257.5H384.727V235.74H396.823V239.42H388.567V245.468H395.863V249.148Z" fill="#3F3D56"/>
<g clip-path="url(#clip0_28_1032)">
<g opacity="0.1">
<path d="M1208.5 287.652C1212.67 287.652 1216.05 283.225 1216.05 277.764C1216.05 272.304 1212.67 267.877 1208.5 267.877C1204.33 267.877 1200.94 272.304 1200.94 277.764C1200.94 283.225 1204.33 287.652 1208.5 287.652Z" fill="#3F3D56"/>
<path d="M1214.48 235.465C1215.54 233.628 1216.08 231.542 1216.07 229.422C1216.07 223.95 1212.68 219.534 1208.51 219.534C1204.34 219.534 1200.96 223.96 1200.96 229.422C1200.94 231.54 1201.48 233.627 1202.54 235.465C1201.5 237.311 1200.96 239.391 1200.96 241.506C1200.96 243.622 1201.5 245.702 1202.54 247.548C1201.5 249.394 1200.96 251.475 1200.96 253.591C1200.96 255.707 1201.5 257.788 1202.54 259.635C1201.48 261.473 1200.94 263.559 1200.96 265.678C1200.96 271.15 1204.34 275.565 1208.51 275.565C1212.68 275.565 1216.07 271.14 1216.07 265.678C1216.09 263.559 1215.54 261.473 1214.49 259.635C1215.52 257.788 1216.07 255.707 1216.07 253.591C1216.07 251.475 1215.52 249.394 1214.49 247.548C1215.52 245.702 1216.07 243.622 1216.07 241.506C1216.07 239.391 1215.52 237.311 1214.49 235.465H1214.48Z" fill="#3F3D56"/>
<path d="M1208.5 227.226C1212.67 227.226 1216.05 222.799 1216.05 217.339C1216.05 211.878 1212.67 207.451 1208.5 207.451C1204.33 207.451 1200.94 211.878 1200.94 217.339C1200.94 222.799 1204.33 227.226 1208.5 227.226Z" fill="#3F3D56"/>
<path d="M1208.5 215.139C1212.67 215.139 1216.05 210.713 1216.05 205.252C1216.05 199.791 1212.67 195.365 1208.5 195.365C1204.33 195.365 1200.94 199.791 1200.94 205.252C1200.94 210.713 1204.33 215.139 1208.5 215.139Z" fill="#3F3D56"/>
<path d="M1236.78 122.548C1237.81 121.234 1238.75 119.85 1239.59 118.406L1219.75 115.147L1241.22 115.308C1243.28 110.827 1244.4 105.974 1244.51 101.045C1244.63 96.1157 1243.74 91.2145 1241.9 86.6408L1213.1 101.573L1239.67 82.0579C1237.18 77.7612 1233.83 74.023 1229.83 71.0759C1225.83 68.1289 1221.27 66.036 1216.43 64.9277C1211.59 63.8194 1206.58 63.7193 1201.69 64.6336C1196.81 65.548 1192.17 67.4572 1188.06 70.2425C1183.95 73.0277 1180.46 76.6294 1177.8 80.8233C1175.14 85.0173 1173.37 89.7136 1172.61 94.6201C1171.84 99.5266 1172.09 104.538 1173.35 109.343C1174.6 114.148 1176.83 118.643 1179.9 122.548C1178.29 124.593 1176.91 126.805 1175.78 129.145L1201.54 142.531L1174.07 133.297C1172.14 138.997 1171.66 145.089 1172.67 151.022C1173.69 156.954 1176.16 162.539 1179.88 167.272C1175.68 172.609 1173.07 179.019 1172.35 185.77C1171.62 192.521 1172.81 199.34 1175.78 205.448C1178.74 211.556 1183.37 216.705 1189.12 220.308C1194.88 223.911 1201.53 225.821 1208.32 225.821C1215.11 225.821 1221.76 223.911 1227.52 220.308C1233.27 216.705 1237.9 211.556 1240.87 205.448C1243.83 199.34 1245.02 192.521 1244.29 185.77C1243.57 179.019 1240.96 172.609 1236.76 167.272C1241.77 160.895 1244.5 153.017 1244.5 144.903C1244.5 136.79 1241.77 128.911 1236.76 122.534L1236.78 122.548Z" fill="#246590"/>
<path opacity="0.1" d="M1172.16 144.919C1172.14 153.034 1174.87 160.915 1179.9 167.286C1175.7 172.623 1173.09 179.033 1172.36 185.784C1171.64 192.535 1172.83 199.354 1175.79 205.462C1178.76 211.569 1183.38 216.719 1189.14 220.322C1194.89 223.925 1201.55 225.835 1208.34 225.835C1215.13 225.835 1221.78 223.925 1227.54 220.322C1233.29 216.719 1237.92 211.569 1240.88 205.462C1243.85 199.354 1245.04 192.535 1244.31 185.784C1243.58 179.033 1240.97 172.623 1236.78 167.286C1241.63 161.13 1172.16 140.856 1172.16 144.919Z" fill="black"/>
</g>
<g opacity="0.1">
<path d="M996.605 277.077C999.144 277.077 1001.2 274.382 1001.2 271.058C1001.2 267.733 999.144 265.038 996.605 265.038C994.067 265.038 992.009 267.733 992.009 271.058C992.009 274.382 994.067 277.077 996.605 277.077Z" fill="#3F3D56"/>
<path d="M1000.26 245.308C1000.9 244.189 1001.23 242.918 1001.22 241.628C1001.22 238.304 999.17 235.609 996.622 235.609C994.074 235.609 992.026 238.304 992.026 241.628C992.012 242.918 992.343 244.188 992.983 245.308C992.356 246.432 992.026 247.699 992.026 248.986C992.026 250.274 992.356 251.54 992.983 252.665C992.356 253.789 992.026 255.055 992.026 256.343C992.026 257.631 992.356 258.897 992.983 260.021C992.342 261.14 992.012 262.409 992.026 263.698C992.026 267.025 994.078 269.72 996.622 269.72C999.167 269.72 1001.22 267.025 1001.22 263.698C1001.24 262.408 1000.9 261.139 1000.26 260.021C1000.89 258.897 1001.22 257.631 1001.22 256.343C1001.22 255.055 1000.89 253.788 1000.26 252.665C1000.89 251.541 1001.22 250.274 1001.22 248.986C1001.22 247.698 1000.89 246.432 1000.26 245.308Z" fill="#3F3D56"/>
<path d="M996.605 240.291C999.144 240.291 1001.2 237.596 1001.2 234.272C1001.2 230.947 999.144 228.252 996.605 228.252C994.067 228.252 992.009 230.947 992.009 234.272C992.009 237.596 994.067 240.291 996.605 240.291Z" fill="#3F3D56"/>
<path d="M996.605 232.934C999.144 232.934 1001.2 230.239 1001.2 226.915C1001.2 223.59 999.144 220.896 996.605 220.896C994.067 220.896 992.009 223.59 992.009 226.915C992.009 230.239 994.067 232.934 996.605 232.934Z" fill="#3F3D56"/>
<path d="M979.399 176.565C978.771 175.765 978.2 174.923 977.689 174.044L989.772 172.06L976.704 172.16C975.453 169.433 974.77 166.481 974.698 163.482C974.625 160.483 975.165 157.501 976.283 154.717L993.804 163.818L977.637 151.916C979.154 149.302 981.192 147.028 983.625 145.236C986.057 143.443 988.833 142.171 991.779 141.497C994.725 140.823 997.778 140.763 1000.75 141.32C1003.72 141.877 1006.54 143.039 1009.04 144.734C1011.55 146.429 1013.67 148.621 1015.29 151.173C1016.91 153.725 1017.98 156.582 1018.45 159.568C1018.92 162.554 1018.76 165.603 1018 168.527C1017.24 171.451 1015.88 174.187 1014.02 176.565C1015 177.808 1015.84 179.153 1016.53 180.576L1000.84 188.73L1017.57 183.117C1018.74 186.589 1019.03 190.298 1018.41 193.909C1017.79 197.521 1016.28 200.921 1014.02 203.802C1016.57 207.051 1018.16 210.953 1018.6 215.063C1019.05 219.172 1018.32 223.323 1016.52 227.041C1014.71 230.759 1011.89 233.894 1008.39 236.087C1004.89 238.28 1000.84 239.443 996.704 239.443C992.571 239.443 988.521 238.28 985.018 236.087C981.514 233.894 978.699 230.759 976.893 227.041C975.087 223.323 974.363 219.172 974.805 215.063C975.247 210.953 976.837 207.051 979.392 203.802C976.339 199.919 974.679 195.123 974.679 190.183C974.679 185.244 976.339 180.447 979.392 176.565H979.399Z" fill="#246590"/>
<path opacity="0.1" d="M1018.73 190.183C1018.74 195.124 1017.08 199.923 1014.02 203.802C1016.57 207.051 1018.16 210.953 1018.6 215.063C1019.05 219.172 1018.32 223.323 1016.52 227.041C1014.71 230.759 1011.89 233.894 1008.39 236.087C1004.89 238.28 1000.84 239.443 996.704 239.443C992.571 239.443 988.521 238.28 985.018 236.087C981.514 233.894 978.699 230.759 976.893 227.041C975.087 223.323 974.364 219.172 974.805 215.063C975.247 210.953 976.837 207.051 979.392 203.802C976.441 200.071 1018.73 187.711 1018.73 190.183Z" fill="black"/>
</g>
<g opacity="0.1">
<path d="M1100.23 282.316C1103.63 282.316 1106.39 278.71 1106.39 274.262C1106.39 269.814 1103.63 266.208 1100.23 266.208C1096.83 266.208 1094.08 269.814 1094.08 274.262C1094.08 278.71 1096.83 282.316 1100.23 282.316Z" fill="#3F3D56"/>
<path d="M1105.1 239.802C1105.96 238.303 1106.4 236.603 1106.39 234.877C1106.39 230.431 1103.65 226.823 1100.23 226.823C1096.81 226.823 1094.07 230.431 1094.07 234.877C1094.06 236.604 1094.5 238.304 1095.36 239.802C1094.52 241.306 1094.07 243.001 1094.07 244.725C1094.07 246.449 1094.52 248.144 1095.36 249.648C1094.52 251.151 1094.07 252.846 1094.07 254.57C1094.07 256.293 1094.52 257.988 1095.36 259.491C1094.5 260.989 1094.06 262.689 1094.07 264.416C1094.07 268.862 1096.83 272.47 1100.23 272.47C1103.63 272.47 1106.39 268.862 1106.39 264.416C1106.4 262.69 1105.96 260.99 1105.1 259.491C1105.94 257.987 1106.39 256.293 1106.39 254.57C1106.39 252.846 1105.94 251.152 1105.1 249.648C1105.94 248.144 1106.39 246.449 1106.39 244.725C1106.39 243.001 1105.94 241.306 1105.1 239.802Z" fill="#3F3D56"/>
<path d="M1100.23 233.088C1103.63 233.088 1106.39 229.482 1106.39 225.034C1106.39 220.586 1103.63 216.98 1100.23 216.98C1096.83 216.98 1094.08 220.586 1094.08 225.034C1094.08 229.482 1096.83 233.088 1100.23 233.088Z" fill="#3F3D56"/>
<path d="M1100.23 223.242C1103.63 223.242 1106.39 219.636 1106.39 215.187C1106.39 210.739 1103.63 207.133 1100.23 207.133C1096.83 207.133 1094.08 210.739 1094.08 215.187C1094.08 219.636 1096.83 223.242 1100.23 223.242Z" fill="#3F3D56"/>
<path d="M1077.21 147.812C1076.37 146.742 1075.61 145.616 1074.92 144.44L1091.09 141.786L1073.6 141.916C1071.93 138.266 1071.01 134.312 1070.91 130.296C1070.82 126.28 1071.54 122.287 1073.04 118.56L1096.5 130.729L1074.86 114.826C1076.88 111.312 1079.61 108.254 1082.87 105.841C1086.12 103.428 1089.84 101.713 1093.79 100.803C1097.74 99.8927 1101.84 99.8068 1105.82 100.551C1109.81 101.295 1113.59 102.852 1116.95 105.126C1120.31 107.4 1123.16 110.342 1125.32 113.767C1127.49 117.193 1128.93 121.028 1129.55 125.034C1130.16 129.04 1129.95 133.131 1128.91 137.05C1127.88 140.969 1126.05 144.633 1123.53 147.812C1124.84 149.479 1125.97 151.281 1126.89 153.188L1105.91 164.092L1128.28 156.567C1129.86 161.212 1130.25 166.176 1129.42 171.009C1128.59 175.842 1126.56 180.391 1123.53 184.246C1126.95 188.594 1129.08 193.816 1129.67 199.315C1130.26 204.815 1129.29 210.369 1126.88 215.345C1124.46 220.32 1120.69 224.515 1116.01 227.45C1111.32 230.384 1105.9 231.941 1100.37 231.941C1094.84 231.941 1089.42 230.384 1084.73 227.45C1080.04 224.515 1076.27 220.32 1073.85 215.345C1071.44 210.369 1070.47 204.815 1071.06 199.315C1071.65 193.816 1073.78 188.594 1077.2 184.246C1073.11 179.05 1070.89 172.632 1070.89 166.022C1070.89 159.413 1073.11 152.994 1077.2 147.798L1077.21 147.812Z" fill="#246590"/>
<path opacity="0.1" d="M1129.84 166.038C1129.85 172.649 1127.63 179.07 1123.53 184.26C1126.95 188.608 1129.08 193.83 1129.67 199.329C1130.26 204.828 1129.29 210.383 1126.88 215.359C1124.46 220.334 1120.69 224.529 1116.01 227.463C1111.32 230.398 1105.9 231.955 1100.37 231.955C1094.84 231.955 1089.42 230.398 1084.73 227.463C1080.04 224.529 1076.27 220.334 1073.85 215.359C1071.44 210.383 1070.47 204.828 1071.06 199.329C1071.65 193.83 1073.78 188.608 1077.2 184.26C1073.25 179.246 1129.84 162.727 1129.84 166.038Z" fill="black"/>
</g>
<path d="M1312 281.591C1312 283.941 1294.82 286.089 1266.43 287.748C1261.26 288.045 1255.73 288.329 1249.86 288.596C1244.79 288.824 1239.47 289.039 1233.92 289.242C1228.53 289.434 1222.94 289.611 1217.14 289.776C1198.83 290.299 1178.59 290.675 1157.08 290.863C1151.86 290.911 1146.57 290.948 1141.22 290.973C1135.63 290.998 1129.99 291.009 1124.28 291.007C1020.6 291.007 936.562 286.797 936.562 281.602C936.562 276.407 1020.6 272.196 1124.28 272.196C1168.91 272.196 1209.9 272.98 1242.12 274.279L1245.64 274.423H1245.66C1286.25 276.143 1312 278.732 1312 281.591Z" fill="#3F3D56"/>
<path opacity="0.15" d="M1312 281.591C1312 283.941 1294.82 286.089 1266.43 287.748C1261.26 288.045 1255.73 288.329 1249.86 288.596C1244.79 288.824 1239.47 289.039 1233.92 289.242C1228.53 289.434 1222.94 289.611 1217.14 289.776C1198.83 290.299 1178.59 290.675 1157.08 290.863C1151.86 290.911 1146.57 290.948 1141.22 290.973C1135.63 290.998 1129.99 291.009 1124.28 291.007C1020.6 291.007 936.562 286.797 936.562 281.602C936.562 276.407 1020.6 272.196 1124.28 272.196C1168.91 272.196 1209.9 272.98 1242.12 274.279L1245.64 274.423H1245.66C1286.25 276.143 1312 278.732 1312 281.591Z" fill="black"/>
<path d="M1296.52 279.936C1296.52 281.899 1279.35 283.698 1250.95 285.066C1245.79 285.316 1240.25 285.552 1234.39 285.774C1229.32 285.966 1224 286.146 1218.44 286.315C1213.06 286.474 1207.47 286.624 1201.67 286.763C1183.35 287.2 1163.11 287.515 1141.61 287.672C1136.39 287.711 1131.1 287.741 1125.74 287.761C1120.16 287.782 1114.51 287.792 1108.81 287.792C1005.13 287.792 921.086 284.273 921.086 279.926C921.086 275.579 1005.13 272.06 1108.81 272.06C1153.44 272.06 1194.43 272.713 1226.65 273.801L1230.17 273.92H1230.19C1270.79 275.381 1296.52 277.532 1296.52 279.936Z" fill="#3F3D56"/>
<path d="M969.569 208.481L964.856 194.051L1077.72 192.817L1082.34 207.102L969.569 208.481Z" fill="#3F3D56"/>
<path opacity="0.15" d="M969.569 208.481L964.856 194.051L1077.72 192.817L1082.34 207.102L969.569 208.481Z" fill="black"/>
<path d="M962.045 208.481L957.332 194.051L1070.19 192.817L1074.82 207.102L962.045 208.481Z" fill="#3F3D56"/>
<path d="M1154.71 186.308C1143.05 186.308 1133.85 181.676 1127.12 172.413C1120.4 163.149 1117.04 151.926 1117.04 138.746C1117.04 125.476 1120.29 114.276 1126.79 105.147C1133.3 96.0175 1142.47 91.4574 1154.31 91.4666C1166.87 91.4666 1176.33 96.2763 1182.7 105.896C1189.06 115.515 1192.25 126.649 1192.25 139.296C1192.25 151.852 1188.96 162.829 1182.37 172.225C1175.78 181.621 1166.56 186.315 1154.71 186.308ZM1155.06 175.887C1162.73 175.887 1168.47 172.541 1172.27 165.85C1176.07 159.158 1177.97 150.721 1177.97 140.541C1177.97 129.209 1176.02 119.931 1172.14 112.705C1168.25 105.48 1162.29 101.866 1154.25 101.864C1138.97 101.864 1131.33 113.998 1131.33 138.267C1131.33 163.35 1139.24 175.89 1155.05 175.887H1155.06ZM1158.9 275.682H1142.02L1252.52 93.3237H1269.08L1158.9 275.682ZM1256.65 277.552C1244.81 277.552 1235.57 272.878 1228.95 263.53C1222.33 254.182 1219 242.958 1218.97 229.86C1218.97 216.679 1222.2 205.523 1228.66 196.394C1235.12 187.265 1244.31 182.705 1256.25 182.714C1268.72 182.714 1278.11 187.524 1284.43 197.143C1290.76 206.763 1293.92 217.895 1293.92 230.54C1293.92 243.014 1290.65 253.97 1284.1 263.407C1277.56 272.844 1268.4 277.559 1256.65 277.552H1256.65ZM1256.85 266.865C1264.49 266.865 1270.2 263.576 1273.97 256.998C1277.75 250.42 1279.63 242.018 1279.63 231.792C1279.63 220.848 1277.72 211.669 1273.9 204.257C1270.08 196.844 1264.13 193.133 1256.05 193.121C1240.69 193.121 1233.01 205.256 1233.01 229.524C1233 254.42 1240.95 266.867 1256.84 266.865H1256.85Z" fill="#3F3D56"/>
<path d="M1154.71 186.308C1143.05 186.308 1133.85 181.676 1127.12 172.413C1120.4 163.149 1117.04 151.926 1117.04 138.746C1117.04 125.476 1120.29 114.276 1126.79 105.147C1133.3 96.0175 1142.47 91.4574 1154.31 91.4666C1166.87 91.4666 1176.33 96.2763 1182.7 105.896C1189.06 115.515 1192.25 126.649 1192.25 139.296C1192.25 151.852 1188.96 162.829 1182.37 172.225C1175.78 181.621 1166.56 186.315 1154.71 186.308ZM1155.06 175.887C1162.73 175.887 1168.47 172.541 1172.27 165.85C1176.07 159.158 1177.97 150.721 1177.97 140.541C1177.97 129.209 1176.02 119.931 1172.14 112.705C1168.25 105.48 1162.29 101.866 1154.25 101.864C1138.97 101.864 1131.33 113.998 1131.33 138.267C1131.33 163.35 1139.24 175.89 1155.05 175.887H1155.06ZM1158.9 275.682H1142.02L1252.52 93.3237H1269.08L1158.9 275.682ZM1256.65 277.552C1244.81 277.552 1235.57 272.878 1228.95 263.53C1222.33 254.182 1219 242.958 1218.97 229.86C1218.97 216.679 1222.2 205.523 1228.66 196.394C1235.12 187.265 1244.31 182.705 1256.25 182.714C1268.72 182.714 1278.11 187.524 1284.43 197.143C1290.76 206.763 1293.92 217.895 1293.92 230.54C1293.92 243.014 1290.65 253.97 1284.1 263.407C1277.56 272.844 1268.4 277.559 1256.65 277.552H1256.65ZM1256.85 266.865C1264.49 266.865 1270.2 263.576 1273.97 256.998C1277.75 250.42 1279.63 242.018 1279.63 231.792C1279.63 220.848 1277.72 211.669 1273.9 204.257C1270.08 196.844 1264.13 193.133 1256.05 193.121C1240.69 193.121 1233.01 205.256 1233.01 229.524C1233 254.42 1240.95 266.867 1256.84 266.865H1256.85Z" fill="#3F3D56"/>
<path opacity="0.15" d="M1154.71 186.308C1143.05 186.308 1133.85 181.676 1127.12 172.413C1120.4 163.149 1117.04 151.926 1117.04 138.746C1117.04 125.476 1120.29 114.276 1126.79 105.147C1133.3 96.0175 1142.47 91.4574 1154.31 91.4666C1166.87 91.4666 1176.33 96.2763 1182.7 105.896C1189.06 115.515 1192.25 126.649 1192.25 139.296C1192.25 151.852 1188.96 162.829 1182.37 172.225C1175.78 181.621 1166.56 186.315 1154.71 186.308ZM1155.06 175.887C1162.73 175.887 1168.47 172.541 1172.27 165.85C1176.07 159.158 1177.97 150.721 1177.97 140.541C1177.97 129.209 1176.02 119.931 1172.14 112.705C1168.25 105.48 1162.29 101.866 1154.25 101.864C1138.97 101.864 1131.33 113.998 1131.33 138.267C1131.33 163.35 1139.24 175.89 1155.05 175.887H1155.06ZM1158.9 275.682H1142.02L1252.52 93.3237H1269.08L1158.9 275.682ZM1256.65 277.552C1244.81 277.552 1235.57 272.878 1228.95 263.53C1222.33 254.182 1219 242.958 1218.97 229.86C1218.97 216.679 1222.2 205.523 1228.66 196.394C1235.12 187.265 1244.31 182.705 1256.25 182.714C1268.72 182.714 1278.11 187.524 1284.43 197.143C1290.76 206.763 1293.92 217.895 1293.92 230.54C1293.92 243.014 1290.65 253.97 1284.1 263.407C1277.56 272.844 1268.4 277.559 1256.65 277.552H1256.65ZM1256.85 266.865C1264.49 266.865 1270.2 263.576 1273.97 256.998C1277.75 250.42 1279.63 242.018 1279.63 231.792C1279.63 220.848 1277.72 211.669 1273.9 204.257C1270.08 196.844 1264.13 193.133 1256.05 193.121C1240.69 193.121 1233.01 205.256 1233.01 229.524C1233 254.42 1240.95 266.867 1256.84 266.865H1256.85Z" fill="black"/>
<path d="M1144.11 186.308C1132.44 186.308 1123.25 181.676 1116.52 172.413C1109.8 163.149 1106.44 151.926 1106.44 138.746C1106.44 125.476 1109.69 114.276 1116.19 105.147C1122.69 96.0175 1131.87 91.4574 1143.71 91.4666C1156.27 91.4666 1165.73 96.2763 1172.1 105.896C1178.46 115.515 1181.65 126.649 1181.65 139.296C1181.65 151.852 1178.35 162.828 1171.76 172.225C1165.17 181.621 1155.96 186.315 1144.11 186.308ZM1144.45 175.887C1152.13 175.887 1157.87 172.541 1161.67 165.85C1165.47 159.158 1167.37 150.721 1167.37 140.541C1167.37 129.209 1165.42 119.931 1161.53 112.705C1157.65 105.48 1151.68 101.866 1143.65 101.864C1128.37 101.864 1120.73 113.998 1120.73 138.267C1120.73 163.35 1128.64 175.89 1144.45 175.887H1144.45ZM1148.3 275.682H1131.42L1241.92 93.3237H1258.48L1148.3 275.682ZM1246.05 277.552C1234.21 277.552 1224.97 272.878 1218.35 263.53C1211.72 254.182 1208.4 242.958 1208.37 229.859C1208.37 216.679 1211.6 205.523 1218.06 196.394C1224.51 187.265 1233.71 182.705 1245.64 182.714C1258.11 182.714 1267.51 187.524 1273.83 197.143C1280.15 206.763 1283.32 217.895 1283.32 230.54C1283.32 243.014 1280.05 253.97 1273.5 263.407C1266.95 272.844 1257.8 277.559 1246.04 277.552H1246.05ZM1246.25 266.865C1253.89 266.865 1259.6 263.576 1263.37 256.998C1267.14 250.42 1269.03 242.018 1269.03 231.792C1269.03 220.848 1267.12 211.669 1263.3 204.257C1259.48 196.844 1253.53 193.133 1245.45 193.121C1230.08 193.121 1222.4 205.256 1222.4 229.524C1222.4 254.42 1230.35 266.867 1246.24 266.865H1246.25Z" fill="#3F3D56"/>
<path d="M1181.04 280.258C1182.44 277.645 1180.84 274.444 1179 272.111C1177.16 269.779 1174.92 267.357 1174.97 264.385C1175.04 260.12 1179.56 257.6 1183.18 255.336C1185.86 253.658 1188.34 251.667 1190.56 249.405C1191.49 248.534 1192.25 247.506 1192.82 246.368C1193.57 244.699 1193.55 242.801 1193.51 240.975C1193.35 234.882 1193.05 228.799 1192.61 222.725" stroke="#3F3D56" stroke-width="1.13169" stroke-miterlimit="10"/>
<path d="M1199.49 222.39C1199.44 221.276 1199.1 220.192 1198.52 219.239C1197.94 218.287 1197.13 217.495 1196.17 216.939L1194.67 219.887L1194.72 216.316C1194.01 216.108 1193.27 216.019 1192.53 216.053C1191.21 216.114 1189.95 216.564 1188.89 217.346C1187.83 218.128 1187.02 219.206 1186.58 220.444C1186.13 221.683 1186.06 223.026 1186.38 224.303C1186.7 225.581 1187.38 226.736 1188.36 227.622C1189.33 228.508 1190.55 229.086 1191.85 229.282C1193.15 229.478 1194.48 229.284 1195.67 228.724C1196.86 228.164 1197.86 227.263 1198.54 226.136C1199.22 225.008 1199.55 223.705 1199.49 222.39Z" fill="#246590"/>
<path d="M1187.62 267.446C1186.92 268.803 1185.78 269.878 1184.38 270.492C1182.98 271.106 1181.42 271.221 1179.95 270.817C1178.47 270.414 1177.19 269.516 1176.3 268.276C1175.41 267.035 1174.97 265.527 1175.06 264.004C1175.16 262.48 1175.77 261.035 1176.8 259.909C1177.83 258.784 1179.22 258.047 1180.72 257.822C1182.23 257.598 1183.77 257.899 1185.09 258.675C1186.4 259.452 1187.41 260.656 1187.94 262.087L1183.78 265.469L1188.36 264.402C1188.36 265.462 1188.11 266.505 1187.62 267.446Z" fill="#246590"/>
<path d="M1184.33 254.515C1183.46 254.556 1182.59 254.424 1181.76 254.128C1180.94 253.831 1180.19 253.376 1179.54 252.788C1178.89 252.199 1178.37 251.489 1178 250.698C1177.63 249.907 1177.41 249.05 1177.37 248.177C1177.32 247.135 1177.52 246.095 1177.95 245.144C1178.34 244.255 1178.93 243.464 1179.67 242.826C1180.4 242.188 1181.27 241.72 1182.21 241.453L1182.17 244.19L1183.68 241.207C1185.44 241.125 1187.17 241.746 1188.47 242.934C1189.78 244.123 1190.56 245.781 1190.64 247.545C1190.72 249.308 1190.1 251.032 1188.91 252.337C1187.72 253.642 1186.06 254.422 1184.3 254.504L1184.33 254.515Z" fill="#246590"/>
<path d="M1200.49 243.766C1199.61 243.824 1198.72 243.706 1197.88 243.418C1197.04 243.13 1196.27 242.678 1195.61 242.088C1194.95 241.499 1194.42 240.783 1194.04 239.984C1193.65 239.184 1193.44 238.317 1193.4 237.433C1193.35 236.548 1193.49 235.664 1193.79 234.833C1194.1 234.001 1194.57 233.239 1195.17 232.59C1195.77 231.941 1196.5 231.419 1197.3 231.054C1198.11 230.689 1198.98 230.489 1199.87 230.465C1201.11 230.404 1202.35 230.697 1203.43 231.31L1202.25 234.531L1204.67 232.209C1205.97 233.394 1206.75 235.046 1206.83 236.802C1206.86 237.418 1206.81 238.036 1206.66 238.635C1206.33 240.046 1205.55 241.309 1204.44 242.235C1203.32 243.161 1201.94 243.698 1200.49 243.766Z" fill="#246590"/>
<path opacity="0.1" d="M1198.59 224.165C1197.05 224.333 1195.56 224.812 1194.02 224.907C1192.48 225.003 1190.79 224.634 1189.81 223.433C1189.28 222.79 1189.02 221.973 1188.58 221.268C1188.16 220.613 1187.58 220.071 1186.9 219.692C1186.48 220.535 1186.23 221.46 1186.19 222.405C1186.15 223.35 1186.31 224.292 1186.66 225.17C1187.01 226.048 1187.55 226.841 1188.23 227.497C1188.91 228.152 1189.72 228.655 1190.62 228.971C1191.51 229.287 1192.46 229.41 1193.4 229.331C1194.34 229.252 1195.25 228.973 1196.08 228.513C1196.91 228.052 1197.63 227.422 1198.19 226.662C1198.75 225.902 1199.15 225.031 1199.35 224.107C1199.09 224.121 1198.84 224.138 1198.59 224.165Z" fill="black"/>
<path opacity="0.1" d="M1200.49 243.765C1199.34 243.818 1198.2 243.573 1197.18 243.054C1196.15 242.536 1195.28 241.761 1194.64 240.806C1194.01 239.851 1193.63 238.747 1193.54 237.602C1193.46 236.457 1193.67 235.31 1194.16 234.271C1194.69 234.629 1195.14 235.084 1195.5 235.612C1195.97 236.327 1196.26 237.154 1196.82 237.811C1197.84 239.032 1199.62 239.429 1201.23 239.357C1202.83 239.285 1204.38 238.827 1205.98 238.673C1206.21 238.652 1206.43 238.639 1206.67 238.632C1206.34 240.044 1205.56 241.309 1204.44 242.236C1203.32 243.162 1201.94 243.699 1200.49 243.765Z" fill="black"/>
<path opacity="0.1" d="M1184.33 254.515C1183.46 254.556 1182.59 254.424 1181.76 254.128C1180.94 253.832 1180.19 253.376 1179.54 252.788C1178.89 252.199 1178.37 251.489 1178 250.698C1177.63 249.907 1177.41 249.05 1177.37 248.177C1177.32 247.135 1177.52 246.095 1177.95 245.144C1178.5 245.509 1178.97 245.973 1179.35 246.512C1179.87 247.24 1180.19 248.082 1180.8 248.755C1181.92 250.004 1183.81 250.445 1185.51 250.404C1187.21 250.363 1188.74 249.966 1190.38 249.84C1189.98 251.146 1189.18 252.295 1188.1 253.132C1187.01 253.969 1185.7 254.451 1184.33 254.515Z" fill="black"/>
<path opacity="0.1" d="M1187.62 267.446C1186.84 268.968 1185.51 270.134 1183.9 270.703C1182.29 271.272 1180.53 271.2 1178.97 270.503C1177.41 269.805 1176.18 268.535 1175.53 266.955C1174.88 265.375 1174.87 263.607 1175.48 262.015C1176.03 262.376 1176.52 262.815 1176.94 263.318C1177.58 264.091 1177.99 264.966 1178.73 265.685C1180.09 267.019 1182.28 267.569 1184.24 267.62C1185.37 267.63 1186.5 267.571 1187.62 267.446Z" fill="black"/>
<path d="M1283.98 279.916C1285.39 277.303 1283.79 274.102 1281.95 271.769C1280.11 269.437 1277.86 267.015 1277.91 264.043C1277.98 259.778 1282.51 257.258 1286.12 254.994C1288.81 253.316 1291.28 251.325 1293.5 249.063C1294.43 248.192 1295.2 247.164 1295.77 246.026C1296.52 244.357 1296.49 242.459 1296.45 240.633C1296.29 234.541 1295.99 228.457 1295.55 222.383" stroke="#3F3D56" stroke-width="1.13169" stroke-miterlimit="10"/>
<path d="M1302.43 222.048C1302.38 220.934 1302.05 219.85 1301.47 218.897C1300.89 217.945 1300.08 217.153 1299.11 216.597L1297.62 219.545L1297.66 215.974C1296.95 215.766 1296.21 215.677 1295.47 215.711C1294.16 215.772 1292.89 216.223 1291.83 217.004C1290.77 217.786 1289.97 218.864 1289.52 220.102C1289.07 221.341 1289.01 222.684 1289.32 223.961C1289.64 225.239 1290.33 226.394 1291.3 227.28C1292.27 228.166 1293.49 228.744 1294.79 228.94C1296.09 229.136 1297.42 228.942 1298.61 228.382C1299.81 227.822 1300.8 226.921 1301.48 225.794C1302.16 224.667 1302.49 223.363 1302.43 222.048Z" fill="#246590"/>
<path d="M1290.56 267.104C1289.86 268.461 1288.72 269.536 1287.32 270.15C1285.93 270.764 1284.36 270.879 1282.89 270.475C1281.42 270.072 1280.13 269.174 1279.24 267.934C1278.35 266.693 1277.92 265.185 1278.01 263.662C1278.1 262.138 1278.71 260.693 1279.74 259.567C1280.77 258.442 1282.16 257.705 1283.67 257.48C1285.18 257.256 1286.72 257.557 1288.03 258.333C1289.35 259.11 1290.35 260.314 1290.88 261.745L1286.73 265.127L1291.31 264.06C1291.31 265.12 1291.05 266.163 1290.56 267.104Z" fill="#246590"/>
<path d="M1287.28 254.173C1286.4 254.214 1285.53 254.082 1284.71 253.786C1283.89 253.49 1283.13 253.034 1282.48 252.446C1281.84 251.857 1281.31 251.147 1280.94 250.356C1280.57 249.565 1280.36 248.708 1280.32 247.835C1280.26 246.793 1280.46 245.753 1280.89 244.802C1281.29 243.913 1281.88 243.122 1282.61 242.484C1283.35 241.846 1284.22 241.378 1285.15 241.111L1285.11 243.848L1286.62 240.865H1286.64C1287.51 240.824 1288.39 240.956 1289.21 241.252C1290.03 241.549 1290.79 242.004 1291.43 242.593C1292.08 243.181 1292.6 243.891 1292.97 244.682C1293.35 245.473 1293.56 246.33 1293.6 247.203C1293.64 248.076 1293.51 248.948 1293.21 249.771C1292.92 250.593 1292.46 251.349 1291.87 251.995C1291.28 252.641 1290.57 253.165 1289.78 253.537C1288.99 253.909 1288.14 254.122 1287.26 254.162L1287.28 254.173Z" fill="#246590"/>
<path d="M1303.43 243.423C1302.55 243.482 1301.66 243.364 1300.83 243.076C1299.99 242.788 1299.22 242.336 1298.56 241.746C1297.9 241.157 1297.36 240.441 1296.98 239.642C1296.6 238.842 1296.38 237.975 1296.34 237.09C1296.3 236.206 1296.43 235.322 1296.74 234.491C1297.04 233.659 1297.51 232.897 1298.11 232.248C1298.71 231.599 1299.44 231.077 1300.25 230.712C1301.05 230.347 1301.93 230.147 1302.81 230.123C1304.05 230.062 1305.29 230.355 1306.37 230.968L1305.2 234.189L1307.62 231.867C1308.92 233.052 1309.69 234.704 1309.78 236.46C1309.81 237.076 1309.75 237.693 1309.61 238.293C1309.27 239.703 1308.49 240.967 1307.38 241.893C1306.27 242.819 1304.88 243.356 1303.43 243.423Z" fill="#246590"/>
<path opacity="0.1" d="M1301.53 223.823C1300 223.991 1298.51 224.469 1296.97 224.565C1295.42 224.661 1293.73 224.292 1292.76 223.091C1292.23 222.448 1291.97 221.631 1291.52 220.926C1291.1 220.27 1290.53 219.729 1289.85 219.35C1289.42 220.193 1289.18 221.118 1289.14 222.063C1289.1 223.008 1289.26 223.95 1289.61 224.828C1289.96 225.706 1290.49 226.499 1291.17 227.155C1291.86 227.81 1292.67 228.312 1293.56 228.629C1294.45 228.945 1295.4 229.068 1296.34 228.989C1297.28 228.91 1298.2 228.631 1299.02 228.171C1299.85 227.71 1300.57 227.079 1301.13 226.32C1301.7 225.56 1302.09 224.689 1302.29 223.765C1302.04 223.779 1301.79 223.796 1301.53 223.823Z" fill="black"/>
<path opacity="0.1" d="M1303.43 243.424C1302.29 243.476 1301.14 243.231 1300.12 242.712C1299.1 242.194 1298.22 241.419 1297.59 240.464C1296.95 239.509 1296.57 238.405 1296.49 237.26C1296.4 236.115 1296.61 234.968 1297.1 233.929C1297.63 234.287 1298.08 234.742 1298.44 235.27C1298.91 235.985 1299.2 236.813 1299.76 237.469C1300.79 238.69 1302.57 239.087 1304.17 239.015C1305.78 238.943 1307.33 238.485 1308.93 238.331C1309.15 238.311 1309.38 238.297 1309.61 238.29C1309.28 239.702 1308.5 240.967 1307.38 241.894C1306.27 242.82 1304.88 243.357 1303.43 243.424Z" fill="black"/>
<path opacity="0.1" d="M1287.28 254.173C1286.4 254.214 1285.53 254.082 1284.71 253.786C1283.89 253.49 1283.13 253.034 1282.48 252.446C1281.84 251.857 1281.31 251.147 1280.94 250.356C1280.57 249.565 1280.36 248.708 1280.32 247.835C1280.26 246.793 1280.46 245.753 1280.89 244.802C1281.44 245.167 1281.92 245.631 1282.3 246.17C1282.81 246.898 1283.14 247.74 1283.74 248.413C1284.86 249.662 1286.75 250.103 1288.45 250.062C1290.1 250.028 1291.69 249.624 1293.33 249.498C1292.92 250.804 1292.12 251.954 1291.04 252.79C1289.96 253.627 1288.64 254.109 1287.28 254.173Z" fill="black"/>
<path opacity="0.1" d="M1290.56 267.104C1289.79 268.626 1288.46 269.792 1286.85 270.361C1285.24 270.93 1283.47 270.858 1281.91 270.161C1280.35 269.463 1279.12 268.193 1278.47 266.613C1277.83 265.033 1277.81 263.265 1278.43 261.673C1278.98 262.034 1279.47 262.473 1279.89 262.976C1280.52 263.749 1280.94 264.625 1281.67 265.343C1283.04 266.677 1285.23 267.227 1287.18 267.278C1288.31 267.288 1289.44 267.229 1290.56 267.104Z" fill="black"/>
<path d="M958.683 275.469C957.274 272.856 958.874 269.655 960.714 267.323C962.554 264.99 964.798 262.569 964.75 259.597C964.682 255.332 960.154 252.811 956.542 250.547C953.856 248.869 951.378 246.879 949.161 244.617C948.233 243.746 947.465 242.718 946.894 241.58C946.145 239.911 946.169 238.013 946.21 236.187C946.367 230.094 946.668 224.011 947.113 217.937" stroke="#3F3D56" stroke-width="1.13169" stroke-miterlimit="10"/>
<path d="M940.232 217.602C940.283 216.488 940.614 215.404 941.195 214.451C941.775 213.499 942.586 212.707 943.553 212.15L945.044 215.099L944.999 211.528C945.711 211.32 946.451 211.231 947.192 211.265C948.507 211.326 949.774 211.776 950.833 212.558C951.892 213.34 952.695 214.418 953.141 215.656C953.588 216.895 953.657 218.238 953.34 219.515C953.023 220.793 952.334 221.948 951.361 222.834C950.388 223.72 949.174 224.298 947.872 224.494C946.57 224.69 945.24 224.496 944.049 223.936C942.857 223.376 941.859 222.475 941.18 221.348C940.5 220.22 940.17 218.917 940.232 217.602Z" fill="#246590"/>
<path d="M952.1 262.658C952.798 264.015 953.942 265.09 955.339 265.704C956.736 266.318 958.302 266.433 959.773 266.029C961.245 265.626 962.533 264.728 963.422 263.488C964.311 262.247 964.746 260.739 964.654 259.216C964.563 257.692 963.951 256.247 962.92 255.121C961.889 253.996 960.503 253.259 958.994 253.034C957.484 252.81 955.944 253.111 954.63 253.887C953.316 254.664 952.309 255.868 951.778 257.299L955.937 260.681L951.354 259.614C951.356 260.674 951.612 261.717 952.1 262.658Z" fill="#246590"/>
<path d="M955.386 249.727C956.259 249.768 957.132 249.636 957.954 249.34C958.777 249.043 959.532 248.588 960.179 248C960.825 247.411 961.349 246.701 961.721 245.91C962.093 245.119 962.305 244.262 962.346 243.389C962.398 242.347 962.201 241.307 961.771 240.356C961.374 239.467 960.786 238.675 960.05 238.038C959.314 237.4 958.447 236.932 957.51 236.665L957.548 239.401L956.039 236.419C954.276 236.337 952.552 236.958 951.247 238.146C949.942 239.335 949.162 240.993 949.08 242.757C948.997 244.52 949.618 246.244 950.807 247.549C951.995 248.854 953.654 249.634 955.417 249.716L955.386 249.727Z" fill="#246590"/>
<path d="M939.23 238.977C940.113 239.036 941 238.918 941.837 238.63C942.674 238.342 943.446 237.89 944.106 237.3C944.767 236.711 945.303 235.995 945.683 235.196C946.064 234.396 946.281 233.529 946.323 232.644C946.364 231.76 946.229 230.876 945.924 230.045C945.62 229.213 945.153 228.451 944.551 227.802C943.948 227.153 943.222 226.631 942.416 226.266C941.609 225.901 940.738 225.701 939.852 225.677C938.614 225.619 937.385 225.912 936.306 226.522L937.482 229.743L935.044 227.431C933.747 228.613 932.971 230.261 932.886 232.014C932.855 232.63 932.913 233.247 933.057 233.847C933.388 235.257 934.17 236.521 935.284 237.447C936.398 238.373 937.783 238.91 939.23 238.977Z" fill="#246590"/>
<path opacity="0.1" d="M941.128 219.377C942.664 219.545 944.155 220.023 945.697 220.119C947.24 220.215 948.932 219.845 949.907 218.645C950.434 218.002 950.694 217.185 951.138 216.48C951.558 215.824 952.134 215.283 952.814 214.903C953.241 215.747 953.484 216.672 953.526 217.617C953.567 218.561 953.407 219.504 953.056 220.382C952.705 221.26 952.171 222.053 951.489 222.709C950.807 223.364 949.994 223.866 949.103 224.183C948.211 224.499 947.263 224.622 946.321 224.543C945.378 224.464 944.464 224.185 943.638 223.724C942.812 223.264 942.093 222.633 941.53 221.874C940.967 221.114 940.572 220.243 940.372 219.319C940.625 219.332 940.875 219.35 941.128 219.377Z" fill="black"/>
<path opacity="0.1" d="M939.23 238.977C940.377 239.03 941.518 238.785 942.542 238.266C943.566 237.748 944.439 236.973 945.076 236.018C945.713 235.063 946.092 233.959 946.177 232.814C946.262 231.669 946.05 230.522 945.56 229.483C945.033 229.841 944.579 230.296 944.223 230.824C943.748 231.539 943.46 232.366 942.903 233.023C941.877 234.244 940.095 234.641 938.491 234.569C936.887 234.497 935.334 234.039 933.734 233.885C933.512 233.864 933.286 233.851 933.05 233.844C933.38 235.256 934.163 236.521 935.278 237.448C936.394 238.374 937.781 238.911 939.23 238.977Z" fill="black"/>
<path opacity="0.1" d="M955.386 249.727C956.259 249.768 957.132 249.636 957.954 249.34C958.776 249.043 959.532 248.588 960.179 248C960.825 247.411 961.349 246.701 961.721 245.91C962.093 245.119 962.305 244.262 962.346 243.389C962.398 242.347 962.201 241.307 961.771 240.356C961.223 240.721 960.746 241.185 960.366 241.724C959.849 242.452 959.524 243.294 958.919 243.967C957.797 245.216 955.909 245.657 954.21 245.616C952.561 245.582 950.974 245.178 949.336 245.051C949.742 246.358 950.541 247.507 951.623 248.344C952.706 249.18 954.019 249.663 955.386 249.727Z" fill="black"/>
<path opacity="0.1" d="M952.1 262.658C952.874 264.18 954.204 265.346 955.814 265.915C957.424 266.484 959.192 266.412 960.75 265.714C962.309 265.017 963.54 263.747 964.188 262.167C964.837 260.587 964.853 258.818 964.234 257.227C963.686 257.587 963.194 258.027 962.774 258.53C962.141 259.303 961.724 260.178 960.992 260.897C959.624 262.23 957.435 262.781 955.479 262.832C954.35 262.842 953.221 262.783 952.1 262.658Z" fill="black"/>
<path d="M1151.43 243.42C1151.43 242.591 1151.25 241.772 1150.88 241.028C1150.51 240.285 1149.98 239.637 1149.31 239.138C1149.23 236.002 1147 233.44 1144.12 233.043C1143.9 231.978 1143.4 230.99 1142.67 230.178C1141.95 229.366 1141.02 228.76 1139.99 228.42C1139.74 228.34 1139.48 228.279 1139.22 228.238H1139.14L1139.01 228.221H1138.9H1138.78H1138.64H1138.55H1138.31C1135.37 228.221 1132.93 230.465 1132.43 233.423C1130.53 232.985 1128.79 233.553 1128.48 234.754C1128.4 235.072 1128.41 235.407 1128.53 235.715C1128.85 236.645 1129.9 237.534 1131.31 237.975L1131.5 238.03C1131.59 238.057 1131.68 238.078 1131.78 238.098H1131.84C1131.32 239.211 1131.24 240.481 1131.63 241.647C1132.02 242.813 1132.84 243.784 1133.93 244.36C1133.88 244.384 1133.84 244.41 1133.8 244.439C1133.63 244.6 1133.49 244.796 1133.39 245.014C1133.05 245.616 1132.78 246.258 1132.6 246.926C1132.46 247.497 1132.44 248.095 1132.26 248.66C1131.95 249.686 1131.15 250.585 1131.05 251.676C1131.01 252.162 1131.09 252.733 1130.75 253.065C1130.66 253.139 1130.57 253.206 1130.47 253.266C1130.23 253.432 1130.03 253.646 1129.87 253.896C1129.77 254.102 1129.64 254.289 1129.47 254.45C1129.16 254.686 1128.65 254.662 1128.49 255.024C1128.34 255.387 1128.74 255.814 1128.64 256.211C1128.57 256.533 1128.22 256.68 1127.96 256.895C1127.67 257.206 1127.47 257.587 1127.38 258C1126.87 258.098 1126.34 258.083 1125.84 257.955C1125.33 257.826 1124.86 257.588 1124.46 257.258C1124.6 257.61 1124.7 257.975 1124.76 258.349C1124.35 257.914 1123.68 257.788 1123.19 257.562C1122.55 257.269 1121.98 256.845 1121.51 256.317L1122.41 256.194L1118.44 250.175L1117.27 249.935L1118.32 251.95C1118.24 251.991 1118.16 252.051 1118.1 252.126C1118.04 252.2 1118 252.288 1117.98 252.381C1117.92 252.604 1117.91 252.836 1117.94 253.065C1117.99 253.604 1118.08 254.14 1118.21 254.669L1118.51 256.084C1118.54 256.217 1118.57 256.349 1118.61 256.478C1118.22 256.463 1117.82 256.508 1117.44 256.611C1116.65 256.32 1115.83 256.126 1115 256.033C1114.81 256.001 1114.63 256.01 1114.45 256.061C1114.24 256.154 1114.07 256.298 1113.93 256.478C1113.25 257.269 1112.64 258.123 1112.12 259.029C1109.99 262.737 1107.14 265.972 1104.48 269.324C1102.64 270.073 1100.79 270.784 1098.93 271.488L1094.94 273.01C1094.14 273.315 1093.31 273.626 1092.47 273.571C1092.08 273.547 1091.62 273.489 1091.4 273.814C1091.3 273.975 1091.22 274.15 1091.16 274.334C1091.02 274.334 1090.88 274.368 1090.75 274.375H1090.73C1090.47 273.746 1090.25 273.072 1089.77 272.614C1089.67 272.629 1089.58 272.668 1089.5 272.728C1089.42 272.787 1089.36 272.866 1089.32 272.956C1089.22 273.133 1089.16 273.328 1089.05 273.493C1088.84 273.807 1088.46 273.961 1088.2 274.228C1087.93 274.495 1087.76 274.912 1087.48 275.172C1087.07 275.464 1086.6 275.647 1086.11 275.702C1085.37 275.876 1084.65 276.148 1083.98 276.509C1083.74 276.661 1083.47 276.783 1083.2 276.872C1082.89 276.93 1082.58 276.94 1082.28 276.902L1080.16 276.749C1079.98 276.724 1079.79 276.732 1079.6 276.772C1079.38 276.852 1079.2 277.002 1079.07 277.198C1078.95 277.394 1078.89 277.626 1078.92 277.857C1078.94 278.086 1079.01 278.307 1079.13 278.507C1079.24 278.707 1079.4 278.882 1079.58 279.019C1079.95 279.288 1080.36 279.5 1080.79 279.645C1082.62 280.357 1084.52 280.912 1086.45 281.304V281.732C1087.78 282.405 1089.26 282.757 1090.76 282.758C1090.87 282.766 1090.98 282.746 1091.08 282.699C1091.22 282.595 1091.32 282.445 1091.35 282.275C1091.8 280.934 1092.08 279.543 1092.2 278.134C1092.46 278.117 1092.72 278.05 1092.96 277.939C1093.69 277.74 1094.41 278.24 1095.16 278.322C1096.08 278.421 1096.94 277.884 1097.81 277.552C1097.94 277.504 1098.06 277.463 1098.19 277.422C1097.94 277.744 1097.65 278.029 1097.32 278.267C1096.96 278.527 1096.55 278.718 1096.19 278.989C1095.9 279.259 1095.58 279.505 1095.25 279.724C1095.01 279.834 1094.77 279.928 1094.52 280.004C1094.16 280.136 1093.81 280.309 1093.49 280.521C1093.2 280.69 1092.96 280.924 1092.78 281.205C1092.69 281.336 1092.63 281.488 1092.62 281.646C1092.6 281.805 1092.63 281.965 1092.69 282.111C1092.76 282.257 1092.86 282.384 1092.98 282.481C1093.11 282.577 1093.26 282.639 1093.42 282.662C1093.7 282.713 1093.99 282.721 1094.28 282.686C1095.42 282.6 1096.56 282.494 1097.7 282.392C1098.18 282.359 1098.66 282.291 1099.14 282.186C1099.38 282.125 1099.63 282.043 1099.88 281.978C1100.31 281.865 1100.74 281.8 1101.18 281.783C1101.31 281.773 1101.44 281.786 1101.56 281.82C1101.83 281.906 1102.02 282.162 1102.29 282.231C1102.46 282.248 1102.64 282.223 1102.8 282.159C1103.64 281.978 1104.49 281.887 1105.34 281.889C1105.72 281.868 1106.15 281.797 1106.33 281.451C1106.54 281.024 1106.18 280.545 1106.04 280.083C1105.97 279.79 1105.93 279.489 1105.93 279.187C1105.86 278.442 1105.65 277.717 1105.3 277.056C1105.11 276.748 1104.96 276.423 1104.83 276.085C1106.46 275.463 1108.03 274.67 1109.49 273.718C1110.34 273.195 1111.2 272.631 1112.16 272.439C1113.26 272.217 1114.41 272.511 1115.5 272.826C1118.1 273.578 1120.65 274.469 1123.15 275.497C1124.35 275.986 1125.55 276.506 1126.77 276.865C1127.13 277.348 1127.56 277.77 1128.06 278.117C1128.88 278.647 1129.88 278.801 1130.84 278.876C1132.15 278.995 1133.45 279.044 1134.76 279.023C1135.76 279.006 1136.79 278.937 1137.68 278.482C1137.9 278.371 1138.11 278.235 1138.29 278.079C1138.98 278.202 1139.68 277.836 1140.22 277.368C1140.93 276.763 1141.44 275.959 1141.69 275.059C1142 273.824 1141.76 272.385 1142.52 271.376C1142.72 271.105 1142.98 270.887 1143.18 270.613C1143.43 270.247 1143.55 269.811 1143.52 269.371L1143.56 269.32C1143.73 268.923 1143.85 268.504 1143.9 268.075C1143.99 267.74 1144.1 267.412 1144.24 267.094C1144.63 266.139 1144.96 265.166 1145.25 264.176C1145.45 263.52 1145.6 262.852 1145.71 262.176C1145.8 261.635 1145.84 261.091 1145.89 260.548C1145.94 259.696 1146.11 258.856 1146.38 258.048C1147.06 256.118 1147.44 254.098 1147.51 252.056C1147.51 252.015 1147.51 251.977 1147.51 251.936C1148.5 251.827 1149.42 251.352 1150.08 250.603C1150.74 249.854 1151.1 248.885 1151.09 247.887C1151.09 247.285 1150.96 246.689 1150.72 246.139C1151.19 245.311 1151.43 244.373 1151.43 243.42ZM1132.09 266.919C1132.15 267.128 1132.21 267.336 1132.28 267.545C1131.97 267.234 1131.66 266.912 1131.34 266.605C1131.47 266.642 1131.59 266.683 1131.71 266.728C1131.85 266.78 1131.97 266.844 1132.09 266.919H1132.09ZM1130.56 265.893C1128.69 264.272 1126.53 263.014 1124.61 261.447C1125.64 261.964 1126.67 262.562 1127.69 263.137C1128.89 263.821 1130.1 264.475 1131.32 265.1C1131.12 265.404 1130.86 265.668 1130.57 265.88L1130.56 265.893ZM1131.35 261.81L1131.44 261.717C1131.44 261.946 1131.44 262.162 1131.44 262.357C1131.27 262.302 1131.1 262.247 1130.94 262.186C1131.09 262.065 1131.23 261.935 1131.36 261.796L1131.35 261.81ZM1114.91 266.201C1115.68 265.331 1116.35 264.378 1116.91 263.359C1117.64 264.655 1118.85 265.589 1119.87 266.673C1118.23 266.44 1116.57 266.259 1114.92 266.187L1114.91 266.201Z" fill="url(#paint0_linear_28_1032)"/>
<path d="M1117.58 250.435L1118.76 250.674L1122.78 256.611L1121 256.851L1117.58 250.435Z" fill="#2F2E41"/>
<path d="M1089 274.532C1089.32 275.585 1089.72 276.613 1090.18 277.61C1091.51 277.332 1092.82 276.958 1094.1 276.492C1093.85 276.107 1093.58 275.738 1093.28 275.387C1092.97 275.038 1092.59 274.75 1092.18 274.536C1091.77 274.358 1091.27 274.491 1090.83 274.515C1090.22 274.538 1089.61 274.544 1089 274.532Z" fill="#FBBEBE"/>
<path d="M1092.18 276.119C1091.52 275.911 1091.11 275.24 1090.84 274.594C1090.57 273.948 1090.35 273.243 1089.84 272.768C1089.74 272.783 1089.65 272.822 1089.57 272.882C1089.49 272.941 1089.43 273.02 1089.39 273.11C1089.29 273.281 1089.23 273.476 1089.12 273.64C1088.91 273.947 1088.53 274.098 1088.26 274.361C1087.99 274.625 1087.82 275.025 1087.53 275.288C1087.13 275.578 1086.66 275.759 1086.16 275.815C1085.42 275.984 1084.7 276.251 1084.02 276.608C1083.77 276.753 1083.51 276.868 1083.23 276.95C1082.92 277.008 1082.61 277.019 1082.3 276.981L1080.17 276.827C1079.98 276.804 1079.79 276.813 1079.6 276.855C1079.39 276.93 1079.2 277.076 1079.08 277.27C1078.95 277.463 1078.9 277.693 1078.92 277.922C1078.95 278.15 1079.02 278.369 1079.14 278.566C1079.26 278.764 1079.42 278.934 1079.6 279.067C1079.97 279.332 1080.38 279.54 1080.81 279.683C1082.67 280.381 1084.58 280.927 1086.53 281.314V281.735C1087.88 282.404 1089.36 282.755 1090.87 282.761C1090.99 282.771 1091.11 282.751 1091.21 282.703C1091.35 282.601 1091.45 282.453 1091.49 282.286C1092 280.791 1092.3 279.232 1092.37 277.655C1092.41 277.256 1092.38 276.853 1092.28 276.465C1092.17 276.082 1092.57 276.242 1092.2 276.092" fill="#2F2E41"/>
<path d="M1133.03 268.089C1126.71 268.472 1120.48 266.618 1114.15 266.42C1113.36 266.372 1112.58 266.423 1111.8 266.571C1111 266.787 1110.22 267.089 1109.48 267.473C1106.09 269.05 1102.58 270.357 1099.07 271.663L1095.05 273.161C1094.24 273.459 1093.41 273.763 1092.55 273.712C1092.17 273.688 1091.7 273.63 1091.48 273.951C1090.83 274.919 1091.14 276.345 1091.57 277.433C1091.71 277.775 1091.95 278.168 1092.33 278.209C1092.59 278.191 1092.85 278.125 1093.1 278.014C1093.83 277.819 1094.56 278.312 1095.31 278.39C1096.24 278.49 1097.11 277.959 1097.99 277.634C1099.45 277.098 1101.04 277.115 1102.57 276.858C1105.14 276.431 1107.52 275.237 1109.75 273.876C1110.6 273.359 1111.46 272.805 1112.44 272.617C1113.55 272.398 1114.71 272.686 1115.8 272.997C1118.42 273.738 1121 274.616 1123.52 275.627C1124.84 276.198 1126.19 276.689 1127.56 277.098C1130.55 277.886 1133.72 277.701 1136.6 276.571C1137.63 276.171 1138.71 275.466 1138.77 274.375C1138.8 273.753 1138.32 273.206 1138 272.665C1137.79 272.323 1137.58 271.981 1137.36 271.656C1136.27 270.069 1134.95 267.973 1133.03 268.089Z" fill="#2F2E41"/>
<path opacity="0.1" d="M1133.03 268.089C1126.71 268.472 1120.48 266.618 1114.15 266.42C1113.36 266.372 1112.58 266.423 1111.8 266.571C1111 266.787 1110.22 267.089 1109.48 267.473C1106.09 269.05 1102.58 270.357 1099.07 271.663L1095.05 273.161C1094.24 273.459 1093.41 273.763 1092.55 273.712C1092.17 273.688 1091.7 273.63 1091.48 273.951C1090.83 274.919 1091.14 276.345 1091.57 277.433C1091.71 277.775 1091.95 278.168 1092.33 278.209C1092.59 278.191 1092.85 278.125 1093.1 278.014C1093.83 277.819 1094.56 278.312 1095.31 278.39C1096.24 278.49 1097.11 277.959 1097.99 277.634C1099.45 277.098 1101.04 277.115 1102.57 276.858C1105.14 276.431 1107.52 275.237 1109.75 273.876C1110.6 273.359 1111.46 272.805 1112.44 272.617C1113.55 272.398 1114.71 272.686 1115.8 272.997C1118.42 273.738 1121 274.616 1123.52 275.627C1124.84 276.198 1126.19 276.689 1127.56 277.098C1130.55 277.886 1133.72 277.701 1136.6 276.571C1137.63 276.171 1138.71 275.466 1138.77 274.375C1138.8 273.753 1138.32 273.206 1138 272.665C1137.79 272.323 1137.58 271.981 1137.36 271.656C1136.27 270.069 1134.95 267.973 1133.03 268.089Z" fill="black"/>
<path d="M1101.13 274.84C1102.12 275.175 1103.11 275.485 1104.12 275.77C1104.68 274.844 1105.74 274.201 1105.98 273.144C1105.99 273.098 1105.99 273.049 1105.98 273.004C1105.95 272.959 1105.91 272.923 1105.86 272.901C1105.14 272.503 1104.34 272.27 1103.52 272.217C1102.87 272.176 1102.58 272.853 1102.28 273.328C1102.18 273.52 1101.39 274.929 1101.13 274.84Z" fill="#FBBEBE"/>
<path d="M1102.52 274.163C1102.23 274.114 1101.94 274.004 1101.69 273.839C1101.44 273.675 1101.23 273.46 1101.07 273.209C1100.93 272.966 1100.78 272.638 1100.5 272.655C1100.22 272.672 1100.12 272.98 1100.07 273.236C1099.88 274.194 1099.6 275.134 1099.25 276.044C1098.89 276.957 1098.29 277.752 1097.5 278.339C1097.13 278.592 1096.73 278.784 1096.37 279.05C1096.07 279.317 1095.75 279.56 1095.41 279.775C1095.17 279.884 1094.93 279.976 1094.68 280.049C1094.31 280.178 1093.95 280.349 1093.63 280.559C1093.34 280.728 1093.09 280.962 1092.91 281.243C1092.82 281.385 1092.77 281.547 1092.76 281.714C1092.75 281.881 1092.78 282.048 1092.85 282.2C1092.92 282.324 1093.02 282.431 1093.14 282.514C1093.26 282.597 1093.39 282.655 1093.53 282.682C1093.82 282.73 1094.11 282.737 1094.41 282.703C1095.56 282.617 1096.71 282.515 1097.86 282.412C1098.34 282.382 1098.83 282.316 1099.3 282.214C1099.56 282.152 1099.8 282.07 1100.05 282.005C1100.48 281.895 1100.92 281.831 1101.37 281.814C1101.5 281.804 1101.63 281.817 1101.75 281.851C1102.02 281.937 1102.21 282.193 1102.48 282.255C1102.66 282.273 1102.83 282.25 1103 282.187C1103.84 282.009 1104.7 281.919 1105.56 281.92C1105.93 281.899 1106.38 281.827 1106.55 281.489C1106.77 281.068 1106.41 280.596 1106.27 280.145C1106.19 279.856 1106.15 279.56 1106.15 279.262C1106.08 278.528 1105.87 277.814 1105.51 277.166C1105.22 276.626 1104.83 276.03 1105.02 275.456C1105.13 275.277 1105.2 275.077 1105.22 274.871C1105.17 273.944 1103.04 274.286 1102.52 274.163Z" fill="#2F2E41"/>
<path d="M1123.56 257.959C1122.44 257.465 1121.55 256.574 1121.04 255.459C1120.94 255.219 1120.85 254.97 1120.75 254.727C1120.42 253.924 1119.91 253.21 1119.25 252.641C1119.18 252.563 1119.09 252.502 1119 252.461C1118.9 252.421 1118.8 252.401 1118.69 252.405C1118.59 252.435 1118.5 252.491 1118.43 252.568C1118.35 252.645 1118.3 252.74 1118.28 252.842C1118.22 253.065 1118.21 253.298 1118.24 253.526C1118.29 254.057 1118.39 254.584 1118.51 255.103L1118.82 256.498C1118.86 256.713 1118.92 256.922 1119.01 257.121C1119.14 257.355 1119.31 257.563 1119.52 257.733C1119.8 257.993 1120.09 258.243 1120.37 258.485C1120.53 258.629 1120.71 258.755 1120.89 258.862C1121.19 259.006 1121.52 259.1 1121.85 259.142C1123.11 259.375 1124.38 259.71 1125.44 260.51C1125.44 260.51 1125.44 259.576 1125.41 259.484C1125.4 259.214 1125.31 258.953 1125.15 258.735C1124.75 258.308 1124.07 258.181 1123.56 257.959Z" fill="#FBBEBE"/>
<path opacity="0.1" d="M1123.56 257.959C1122.44 257.465 1121.55 256.574 1121.04 255.459C1120.94 255.219 1120.85 254.97 1120.75 254.727C1120.42 253.924 1119.91 253.21 1119.25 252.641C1119.18 252.563 1119.09 252.502 1119 252.461C1118.9 252.421 1118.8 252.401 1118.69 252.405C1118.59 252.435 1118.5 252.491 1118.43 252.568C1118.35 252.645 1118.3 252.74 1118.28 252.842C1118.22 253.065 1118.21 253.298 1118.24 253.526C1118.29 254.057 1118.39 254.584 1118.51 255.103L1118.82 256.498C1118.86 256.713 1118.92 256.922 1119.01 257.121C1119.14 257.355 1119.31 257.563 1119.52 257.733C1119.8 257.993 1120.09 258.243 1120.37 258.485C1120.53 258.629 1120.71 258.755 1120.89 258.862C1121.19 259.006 1121.52 259.1 1121.85 259.142C1123.11 259.375 1124.38 259.71 1125.44 260.51C1125.44 260.51 1125.44 259.576 1125.41 259.484C1125.4 259.214 1125.31 258.953 1125.15 258.735C1124.75 258.308 1124.07 258.181 1123.56 257.959Z" fill="black"/>
<path d="M1136.42 247.288C1137.27 247.288 1137.96 246.596 1137.96 245.742C1137.96 244.888 1137.27 244.196 1136.42 244.196C1135.57 244.196 1134.88 244.888 1134.88 245.742C1134.88 246.596 1135.57 247.288 1136.42 247.288Z" fill="#2F2E41"/>
<path d="M1135.47 244.809C1135.06 244.715 1134.62 244.777 1134.26 244.983C1134.08 245.14 1133.94 245.334 1133.84 245.551C1133.5 246.141 1133.23 246.773 1133.04 247.432C1132.9 247.996 1132.88 248.584 1132.7 249.142C1132.38 250.168 1131.58 251.04 1131.49 252.11C1131.44 252.589 1131.52 253.154 1131.17 253.478C1131.09 253.551 1130.99 253.616 1130.9 253.673C1130.65 253.836 1130.45 254.048 1130.29 254.296C1130.19 254.518 1130.04 254.719 1129.86 254.887C1129.55 255.12 1129.03 255.096 1128.88 255.455C1128.73 255.814 1129.12 256.232 1129.03 256.621C1128.95 256.94 1128.6 257.087 1128.35 257.305C1128.06 257.611 1127.86 257.987 1127.76 258.396C1127.25 258.493 1126.72 258.478 1126.21 258.351C1125.7 258.224 1125.23 257.988 1124.82 257.661C1125.25 258.718 1125.26 259.884 1125.28 261.023C1125.33 261.387 1125.23 261.756 1125.01 262.049C1126.23 262.076 1127.42 262.391 1128.62 262.675C1129.13 262.846 1129.68 262.846 1130.19 262.675C1130.46 262.528 1130.71 262.333 1130.91 262.1C1131.56 261.44 1132.24 260.732 1132.4 259.812C1132.44 259.295 1132.45 258.775 1132.43 258.256C1132.49 257.616 1132.62 256.984 1132.82 256.372C1133.16 255.101 1133.39 253.802 1133.5 252.49C1133.58 251.679 1134.27 251.03 1134.64 250.305C1135.33 248.937 1136.04 247.517 1136.1 245.985C1136.15 245.486 1135.98 244.874 1135.47 244.809Z" fill="#2F2E41"/>
<path opacity="0.1" d="M1135.47 244.809C1135.06 244.715 1134.62 244.777 1134.26 244.983C1134.08 245.14 1133.94 245.334 1133.84 245.551C1133.5 246.141 1133.23 246.773 1133.04 247.432C1132.9 247.996 1132.88 248.584 1132.7 249.142C1132.38 250.168 1131.58 251.04 1131.49 252.11C1131.44 252.589 1131.52 253.154 1131.17 253.478C1131.09 253.551 1130.99 253.616 1130.9 253.673C1130.65 253.836 1130.45 254.048 1130.29 254.296C1130.19 254.518 1130.04 254.719 1129.86 254.887C1129.55 255.12 1129.03 255.096 1128.88 255.455C1128.73 255.814 1129.12 256.232 1129.03 256.621C1128.95 256.94 1128.6 257.087 1128.35 257.305C1128.06 257.611 1127.86 257.987 1127.76 258.396C1127.25 258.493 1126.72 258.478 1126.21 258.351C1125.7 258.224 1125.23 257.988 1124.82 257.661C1125.25 258.718 1125.26 259.884 1125.28 261.023C1125.33 261.387 1125.23 261.756 1125.01 262.049C1126.23 262.076 1127.42 262.391 1128.62 262.675C1129.13 262.846 1129.68 262.846 1130.19 262.675C1130.46 262.528 1130.71 262.333 1130.91 262.1C1131.56 261.44 1132.24 260.732 1132.4 259.812C1132.44 259.295 1132.45 258.775 1132.43 258.256C1132.49 257.616 1132.62 256.984 1132.82 256.372C1133.16 255.101 1133.39 253.802 1133.5 252.49C1133.58 251.679 1134.27 251.03 1134.64 250.305C1135.33 248.937 1136.04 247.517 1136.1 245.985C1136.15 245.486 1135.98 244.874 1135.47 244.809Z" fill="black"/>
<path d="M1134.03 269.419C1132.72 268.794 1131.76 267.627 1130.69 266.629C1128.66 264.72 1126.18 263.373 1124.04 261.584C1122.63 260.401 1121.37 259.022 1119.81 258.031C1118.44 257.157 1116.89 256.613 1115.27 256.44C1115.09 256.408 1114.9 256.417 1114.72 256.468C1114.52 256.559 1114.34 256.7 1114.2 256.878C1113.51 257.655 1112.9 258.497 1112.37 259.392C1109.67 263.981 1105.83 267.843 1102.64 272.114C1102.54 272.215 1102.48 272.35 1102.47 272.494C1102.47 272.637 1102.51 272.777 1102.61 272.887L1103.25 274.156C1103.62 274.864 1104.2 275.692 1104.96 275.552C1105.31 275.45 1105.63 275.25 1105.87 274.974L1108.78 272.193L1111.82 269.279C1113.61 267.569 1115.42 265.825 1116.59 263.643C1117.5 265.22 1119.11 266.252 1120.22 267.699C1120.64 268.246 1120.99 268.852 1121.36 269.433C1121.97 270.367 1122.65 271.242 1123.34 272.114L1126.83 276.578C1127.28 277.213 1127.82 277.769 1128.45 278.219C1129.28 278.742 1130.29 278.883 1131.26 278.968C1132.58 279.088 1133.89 279.136 1135.21 279.112C1136.22 279.095 1137.27 279.03 1138.15 278.582C1139.04 278.134 1139.8 277.214 1139.75 276.212C1139.7 275.687 1139.53 275.18 1139.25 274.731C1138.01 272.439 1136.38 270.524 1134.03 269.419Z" fill="#2F2E41"/>
<path d="M1137.36 248C1138.02 248 1138.54 247.468 1138.54 246.813C1138.54 246.157 1138.02 245.626 1137.36 245.626C1136.71 245.626 1136.18 246.157 1136.18 246.813C1136.18 247.468 1136.71 248 1137.36 248Z" fill="#E8E8F0"/>
<path d="M1137.1 245.92C1137.37 246.451 1137.42 247.065 1137.23 247.63C1137.05 248.186 1136.8 248.715 1136.48 249.203C1136.2 249.708 1135.87 250.18 1135.49 250.612C1137.31 250.701 1139.08 249.987 1140.69 249.118C1141.98 248.434 1143.27 247.562 1143.97 246.259C1143.76 246.308 1143.55 246.313 1143.34 246.275C1143.13 246.237 1142.93 246.155 1142.76 246.036C1142.41 245.794 1142.1 245.504 1141.83 245.175L1140.92 244.149C1140.7 243.923 1140.51 243.674 1140.35 243.406C1140.15 243.042 1140.07 242.626 1140.11 242.213C1139.75 242.593 1139.34 242.931 1138.9 243.218C1138.25 243.646 1137.53 243.954 1136.87 244.374C1136.64 244.525 1136.12 244.768 1136.26 245.058C1136.39 245.349 1136.92 245.592 1137.1 245.92Z" fill="#FBBEBE"/>
<path opacity="0.1" d="M1137.1 245.92C1137.37 246.451 1137.42 247.065 1137.23 247.63C1137.05 248.186 1136.8 248.715 1136.48 249.203C1136.2 249.708 1135.87 250.18 1135.49 250.612C1137.31 250.701 1139.08 249.987 1140.69 249.118C1141.98 248.434 1143.27 247.562 1143.97 246.259C1143.76 246.308 1143.55 246.313 1143.34 246.275C1143.13 246.237 1142.93 246.155 1142.76 246.036C1142.41 245.794 1142.1 245.504 1141.83 245.175L1140.92 244.149C1140.7 243.923 1140.51 243.674 1140.35 243.406C1140.15 243.042 1140.07 242.626 1140.11 242.213C1139.75 242.593 1139.34 242.931 1138.9 243.218C1138.25 243.646 1137.53 243.954 1136.87 244.374C1136.64 244.525 1136.12 244.768 1136.26 245.058C1136.39 245.349 1136.92 245.592 1137.1 245.92Z" fill="black"/>
<path d="M1137.13 246.098C1136.94 246.359 1136.85 246.67 1136.85 246.989C1136.85 247.308 1136.94 247.619 1137.13 247.88C1137.18 247.945 1137.37 248.352 1137.47 248.355C1137.55 248.348 1137.63 248.31 1137.68 248.249C1138.09 247.817 1138.48 247.361 1138.84 246.881C1139.2 246.396 1139.72 246.054 1140.31 245.917C1141.02 245.804 1141.71 246.184 1142.33 246.546C1142.6 246.68 1142.84 246.874 1143.02 247.114C1143.15 247.352 1143.23 247.615 1143.25 247.887C1143.43 249.517 1143.5 251.158 1143.45 252.798C1143.49 253.98 1143.41 255.163 1143.22 256.331C1143.1 256.933 1142.93 257.521 1142.85 258.13C1142.79 258.666 1142.76 259.205 1142.77 259.744V262.001C1142.76 262.415 1142.79 262.829 1142.86 263.236C1143.01 263.722 1143.17 264.2 1143.36 264.669C1143.53 265.227 1143.64 265.8 1143.7 266.379L1144.01 268.715C1144.11 269.454 1144.18 270.257 1143.73 270.849C1143.53 271.119 1143.27 271.331 1143.05 271.598C1142.28 272.576 1142.54 273.995 1142.19 275.21C1141.94 276.101 1141.42 276.894 1140.71 277.484C1140.17 277.946 1139.46 278.312 1138.76 278.168C1137.81 277.99 1137.24 277.002 1136.98 276.068C1136.72 275.134 1136.64 274.115 1136.06 273.332C1135.61 272.686 1134.9 272.282 1134.26 271.82C1133.62 271.359 1132.99 270.767 1132.85 269.987C1132.79 269.645 1132.83 269.303 1132.79 268.961C1132.74 268.525 1132.57 268.111 1132.31 267.762C1132.04 267.413 1131.69 267.142 1131.28 266.978C1130.79 266.789 1130.19 266.721 1129.91 266.293C1130.61 265.856 1131.12 265.174 1131.33 264.382C1131.55 263.601 1131.66 262.797 1131.68 261.988L1131.84 259.272C1131.91 258.058 1131.95 256.854 1132.48 255.763C1132.72 255.277 1133.02 254.819 1133.26 254.337C1133.59 253.66 1133.87 252.961 1134.11 252.244C1134.49 251.132 1134.88 250.017 1135.23 248.892C1135.37 248.347 1135.57 247.822 1135.84 247.329C1136.16 246.816 1136.58 246.201 1137.13 246.098Z" fill="#E8E8F0"/>
<path d="M1131.1 263.742L1131.82 263.766L1131.97 262.682C1131.99 262.465 1132.04 262.252 1132.12 262.049C1132.24 261.835 1132.38 261.632 1132.54 261.444C1133.24 260.445 1133.19 259.118 1133.37 257.904C1133.6 256.286 1134.28 254.768 1134.95 253.277L1136.34 250.168C1136.47 249.912 1136.57 249.645 1136.64 249.371C1136.7 249.068 1136.73 248.76 1136.73 248.451C1136.73 247.972 1136.88 246.224 1136.89 245.742C1136.89 245.564 1136.5 245.663 1136.42 245.506C1136.25 245.164 1136.01 246.094 1135.68 246.3C1135.37 246.536 1135.14 246.866 1135.04 247.24C1134.73 248.023 1134.55 248.848 1134.27 249.634C1134.02 250.44 1133.57 251.169 1132.97 251.751C1132.68 252.004 1132.35 252.203 1132.08 252.469C1131.21 253.328 1131.13 254.682 1131.1 255.89C1131.08 256.638 1130.94 263.742 1131.1 263.742Z" fill="#2F2E41"/>
<path d="M1141.44 244.802C1140.76 245.075 1140.36 245.828 1140.17 246.56C1139.97 247.291 1139.89 248.064 1139.52 248.714C1138.64 250.24 1136.41 250.684 1135.79 252.333C1135.63 252.889 1135.55 253.464 1135.54 254.043C1135.43 255.223 1135.04 256.365 1134.92 257.545C1134.86 258.463 1134.88 259.384 1134.99 260.298L1135.77 269.611C1135.92 270.982 1135.84 272.37 1135.53 273.715C1136.34 273.831 1137.16 273.696 1137.88 273.328C1138.62 272.986 1139.29 272.535 1139.99 272.145C1141.21 271.461 1142.55 270.999 1143.61 270.093C1143.8 269.943 1143.96 269.762 1144.1 269.556C1144.27 269.165 1144.38 268.751 1144.44 268.328C1144.53 267.999 1144.64 267.676 1144.78 267.364C1145.17 266.425 1145.51 265.466 1145.81 264.491C1146 263.844 1146.16 263.185 1146.27 262.518C1146.36 261.988 1146.4 261.451 1146.45 260.917C1146.51 260.078 1146.67 259.25 1146.95 258.455C1147.63 256.558 1148.01 254.568 1148.09 252.555C1148.11 252.264 1148.09 251.971 1148.03 251.686C1147.91 251.341 1147.75 251.01 1147.56 250.701C1147.23 250.089 1147.04 249.415 1146.73 248.796C1146.04 247.394 1144.82 246.33 1143.53 245.438C1142.88 245.003 1142.16 244.531 1141.44 244.802Z" fill="#2F2E41"/>
<path d="M1125.12 259.997C1124.56 259.707 1124.06 259.325 1123.63 258.869C1123.43 258.639 1123.29 258.383 1123.08 258.157C1122.57 257.622 1121.92 257.25 1121.2 257.09C1120.49 256.933 1119.77 256.863 1119.04 256.881C1118.55 256.848 1118.06 256.907 1117.6 257.056C1117.36 257.132 1117.15 257.266 1116.99 257.446C1116.82 257.625 1116.7 257.844 1116.64 258.082C1116.53 258.663 1116.91 259.228 1117.37 259.597C1117.79 259.943 1118.29 260.185 1118.82 260.305C1119.26 260.38 1119.69 260.432 1120.13 260.459C1122.72 260.729 1125.03 262.135 1127.29 263.417C1129.28 264.541 1131.31 265.594 1133.38 266.574C1133.46 265.955 1133.5 265.331 1133.48 264.707C1133.48 264.241 1133.45 263.53 1133.01 263.256C1132.49 262.935 1131.64 262.863 1131.07 262.672C1129.74 262.237 1128.44 261.711 1127.18 261.098C1126.46 260.753 1125.78 260.387 1125.12 259.997Z" fill="#FBBEBE"/>
<path d="M1136.42 245.39C1138.97 245.39 1141.03 243.315 1141.03 240.756C1141.03 238.197 1138.97 236.122 1136.42 236.122C1133.88 236.122 1131.81 238.197 1131.81 240.756C1131.81 243.315 1133.88 245.39 1136.42 245.39Z" fill="#FBBEBE"/>
<path d="M1142.76 250.055C1142.39 250.57 1142.09 251.13 1141.87 251.72C1141.3 252.894 1140.41 253.899 1139.96 255.141C1139.49 256.43 1139.51 257.966 1138.59 258.981C1138.41 259.135 1138.27 259.336 1138.19 259.563C1138.19 259.704 1138.17 259.844 1138.14 259.983C1138.01 260.353 1137.41 260.37 1137.3 260.746C1137.27 260.855 1137.3 260.975 1137.24 261.088C1137.15 261.331 1136.83 261.365 1136.62 261.512C1136.17 261.817 1136.27 262.521 1135.93 262.959C1135.79 263.121 1135.61 263.244 1135.41 263.315C1135.21 263.386 1134.99 263.402 1134.78 263.362C1134.36 263.274 1133.96 263.123 1133.59 262.914C1133.45 262.84 1133.31 262.795 1133.16 262.781C1132.98 262.785 1132.81 262.843 1132.66 262.949C1131.81 263.489 1131.41 264.563 1131.42 265.575C1131.48 266.588 1131.72 267.581 1132.13 268.51C1132.17 268.67 1132.25 268.819 1132.36 268.947C1132.64 269.245 1133.13 269.197 1133.51 269.029C1133.86 268.821 1134.24 268.653 1134.63 268.53C1135.34 268.4 1136.04 268.893 1136.76 268.852C1137.29 268.771 1137.78 268.552 1138.2 268.215C1138.93 267.771 1139.59 267.211 1140.14 266.557C1140.46 266.143 1140.69 265.671 1140.97 265.23C1141.32 264.688 1141.71 264.169 1142.13 263.677L1144.79 260.425C1145.05 260.117 1145.29 259.786 1145.5 259.436C1145.74 258.963 1145.93 258.466 1146.06 257.952C1146.34 257.095 1146.53 256.208 1146.61 255.308C1146.62 254.563 1146.56 253.819 1146.41 253.089C1146.32 252.362 1146.13 251.651 1145.84 250.978C1145.25 249.781 1143.85 248.789 1142.76 250.055Z" fill="#2F2E41"/>
<path d="M1152.02 244.019C1152.02 243.197 1151.83 242.386 1151.46 241.653C1151.09 240.92 1150.55 240.285 1149.88 239.802C1149.86 238.343 1149.32 236.939 1148.37 235.84C1147.41 234.74 1146.09 234.017 1144.65 233.799C1144.37 232.418 1143.61 231.179 1142.51 230.301C1141.4 229.423 1140.03 228.963 1138.62 229.001C1137.21 229.039 1135.86 229.573 1134.8 230.509C1133.75 231.445 1133.06 232.723 1132.86 234.117C1130.94 233.687 1129.19 234.247 1128.87 235.427C1128.53 236.662 1129.9 238.105 1131.92 238.653C1132.56 238.832 1133.22 238.898 1133.88 238.847C1134.35 239.539 1134.96 240.124 1135.67 240.566C1136.38 241.008 1137.17 241.296 1138 241.413C1138.24 242.528 1138.79 243.554 1139.59 244.374C1140.38 245.194 1141.39 245.775 1142.5 246.054C1142.8 246.794 1143.28 247.452 1143.89 247.976C1143.89 248.119 1143.86 248.266 1143.86 248.417C1143.84 248.943 1143.93 249.467 1144.11 249.96C1144.3 250.452 1144.58 250.901 1144.95 251.281C1145.31 251.661 1145.75 251.963 1146.23 252.17C1146.71 252.376 1147.24 252.482 1147.76 252.482C1148.29 252.482 1148.81 252.376 1149.29 252.17C1149.78 251.963 1150.21 251.661 1150.58 251.281C1150.94 250.901 1151.23 250.452 1151.41 249.96C1151.6 249.467 1151.68 248.943 1151.66 248.417C1151.66 247.827 1151.53 247.243 1151.29 246.707C1151.77 245.893 1152.02 244.964 1152.02 244.019Z" fill="#F86D70"/>
<path opacity="0.1" d="M1130.17 235.663C1130.49 234.483 1132.22 233.923 1134.16 234.353C1134.38 232.937 1135.1 231.645 1136.18 230.707C1137.27 229.768 1138.65 229.243 1140.08 229.223C1140.22 229.223 1140.35 229.223 1140.48 229.223C1139.93 229.054 1139.35 228.969 1138.77 228.97C1137.34 228.99 1135.95 229.515 1134.87 230.454C1133.79 231.392 1133.07 232.684 1132.84 234.1C1130.93 233.669 1129.18 234.23 1128.86 235.41C1128.52 236.645 1129.88 238.088 1131.91 238.635C1132.29 238.74 1132.67 238.806 1133.06 238.834C1131.14 238.273 1129.85 236.871 1130.17 235.663Z" fill="black"/>
<path opacity="0.1" d="M1145.16 248.656C1145.16 248.506 1145.16 248.359 1145.19 248.212C1144.58 247.69 1144.1 247.032 1143.8 246.293C1142.69 246.012 1141.68 245.429 1140.89 244.609C1140.1 243.788 1139.55 242.764 1139.3 241.649C1138.47 241.533 1137.68 241.244 1136.97 240.803C1136.26 240.361 1135.65 239.775 1135.18 239.083C1134.79 239.114 1134.41 239.103 1134.03 239.053C1134.5 239.69 1135.09 240.227 1135.78 240.632C1136.46 241.037 1137.21 241.302 1138 241.413C1138.24 242.528 1138.79 243.554 1139.59 244.374C1140.38 245.194 1141.39 245.775 1142.5 246.054C1142.8 246.794 1143.28 247.452 1143.89 247.976C1143.89 248.119 1143.86 248.266 1143.86 248.417C1143.85 249.465 1144.24 250.478 1144.97 251.234C1145.7 251.99 1146.69 252.428 1147.74 252.453C1146.98 252.157 1146.32 251.636 1145.86 250.957C1145.4 250.279 1145.15 249.476 1145.16 248.656Z" fill="black"/>
<path d="M1138.53 242.454C1138.84 242.216 1138.84 241.686 1138.52 241.269C1138.21 240.852 1137.7 240.707 1137.38 240.945C1137.07 241.183 1137.07 241.713 1137.39 242.13C1137.71 242.546 1138.22 242.691 1138.53 242.454Z" fill="#FBBEBE"/>
<path d="M1028.41 265.514L1032.96 262.836C1032.35 261.783 1031.56 260.841 1030.63 260.048L1022.04 262.719L1028.77 258.762C1027.11 257.85 1025.23 257.387 1023.33 257.419C1021.43 257.451 1019.57 257.978 1017.94 258.946C1016.3 259.915 1014.95 261.293 1014.01 262.944C1013.07 264.595 1012.57 266.462 1012.57 268.363C1012.57 274.406 1017.47 274.614 1023.52 274.614C1029.56 274.614 1034.46 274.406 1034.46 268.363C1034.47 266.831 1034.14 265.316 1033.52 263.916L1028.41 265.514Z" fill="#246590"/>
<path opacity="0.1" d="M1029.57 271.389C1029.08 270.903 1028.54 270.477 1027.95 270.12C1027.13 269.57 1026.27 269.009 1025.3 268.824C1024.44 268.66 1023.56 268.8 1022.69 268.749C1021.17 268.657 1019.75 268.003 1018.69 266.916C1018.07 266.273 1017.58 265.483 1016.83 264.99C1015.99 264.493 1015 264.312 1014.04 264.481C1013.77 264.52 1013.49 264.575 1013.22 264.648C1012.79 265.84 1012.57 267.096 1012.57 268.363C1012.57 274.406 1017.47 274.614 1023.52 274.614C1026.45 274.614 1029.11 274.567 1031.08 273.824L1030.74 273.212C1030.43 272.557 1030.03 271.945 1029.57 271.389Z" fill="black"/>
</g>
<circle cx="704" cy="322" r="4" fill="#3F3D56"/>
<circle cx="720" cy="322" r="4" fill="#FAFAFA"/>
<circle cx="736" cy="322" r="4" fill="#FAFAFA"/>
<defs>
<linearGradient id="paint0_linear_28_1032" x1="1115.18" y1="282.761" x2="1115.18" y2="228.163" gradientUnits="userSpaceOnUse">
<stop stop-color="#808080" stop-opacity="0.25"/>
<stop offset="0.54" stop-color="#808080" stop-opacity="0.12"/>
<stop offset="1" stop-color="#808080" stop-opacity="0.1"/>
</linearGradient>
<clipPath id="clip0_28_1032">
<rect width="390.914" height="227" fill="white" transform="translate(921.086 64)"/>
</clipPath>
</defs>
</svg>
