<svg xmlns="http://www.w3.org/2000/svg" viewBox="0 0 1000 324.43"><title>visa-17</title><polygon points="433.5 319.03 351.91 319.03 402.91 5.61 484.51 5.61 433.5 319.03" fill="#005ca8"/><path d="M283.26,343,205.47,558.55l-9.21-46.43v0L168.81,371.21S165.5,343,130.1,343H1.51L0,348.28s39.34,8.18,85.35,35.84L156.24,656.4h85L371.08,343Z" transform="translate(0 -337.37)" fill="#005ca8"/><path d="M925.08,656.4H1000L934.67,343h-65.6c-30.29,0-37.67,23.36-37.67,23.36L709.71,656.4h85l17-46.55H915.51ZM835.29,545.53l42.88-117.29,24.12,117.29Z" transform="translate(0 -337.37)" fill="#005ca8"/><path d="M716.09,418.35,727.73,351s-35.93-13.66-73.39-13.66c-40.49,0-136.65,17.71-136.65,103.76,0,81,112.86,82,112.86,124.5s-101.22,34.92-134.63,8.1l-12.14,70.36s36.43,17.71,92.11,17.71S715.59,633,715.59,554.49c0-81.48-113.88-89.07-113.88-124.5S681.17,399.11,716.09,418.35Z" transform="translate(0 -337.37)" fill="#005ca8"/><path d="M196.27,512.14,168.81,371.21S165.5,343,130.1,343H1.51L0,348.28s61.81,12.82,121.11,60.81C177.78,455,196.27,512.14,196.27,512.14Z" transform="translate(0 -337.37)" fill="#f6a723"/></svg>